G04*
G04 #@! TF.GenerationSoftware,Altium Limited,Altium Designer,26.6.0 (10)*
G04*
G04 Layer_Color=128*
G04 Board_Origin=30950000|19250000*
%FSLAX43Y43*%
%MOMM*%
G71*
G04*
G04 #@! TF.SameCoordinates,0535685A-DFC4-4527-B4F2-3BE9C4C73D04*
G04*
G04*
G04 #@! TF.FilePolarity,Positive*
G04*
G01*
G75*
%ADD10C,0.250*%
%ADD14C,0.254*%
%ADD21R,0.800X0.800*%
%ADD22R,1.100X1.900*%
%ADD23R,0.700X2.900*%
%ADD39R,1.750X0.760*%
D10*
X-1Y24000D02*
G03*
X-1999Y24000I-999J-50D01*
G01*
Y29000D02*
G03*
X-1Y29000I999J50D01*
G01*
X13684Y-1D02*
G03*
X13684Y-1999I50J-999D01*
G01*
X25401Y28892D02*
G03*
X27399Y28892I999J50D01*
G01*
X8684Y-1999D02*
G03*
X8684Y-1I-50J999D01*
G01*
X27399Y23892D02*
G03*
X25401Y23892I-999J-50D01*
G01*
D14*
X2288Y42928D02*
G03*
X0Y40640I0J-2288D01*
G01*
X25400D02*
G03*
X23112Y42928I-2288J0D01*
G01*
X27399Y43000D02*
X32704D01*
X27399Y37695D02*
Y43000D01*
Y28892D02*
Y37695D01*
X32704Y-7301D02*
Y43000D01*
X-1999Y37697D02*
Y43000D01*
X-7302D02*
X-1999D01*
X-7302Y0D02*
Y43000D01*
X2288Y42928D02*
X23112D01*
X-7301Y-7301D02*
X32704D01*
X25400Y40640D02*
X25400Y2540D01*
X0Y0D02*
Y40640D01*
X-1999Y-1999D02*
Y23892D01*
X22860Y0D02*
X25400Y2540D01*
X0Y0D02*
X22860D01*
X27399Y-1999D02*
Y23892D01*
X-1999Y28892D02*
Y37697D01*
X-7302Y0D02*
X-7301D01*
Y-7301D02*
Y0D01*
X13684Y-1999D02*
X27399D01*
X-1999D02*
X8684D01*
D21*
X15113Y31623D02*
D03*
Y30123D02*
D03*
X10541D02*
D03*
Y31623D02*
D03*
X13589D02*
D03*
Y30123D02*
D03*
X5969D02*
D03*
Y31623D02*
D03*
X16637Y30123D02*
D03*
Y31623D02*
D03*
X12065Y30123D02*
D03*
Y31623D02*
D03*
X7493Y30123D02*
D03*
Y31623D02*
D03*
X9017Y30123D02*
D03*
Y31623D02*
D03*
D22*
X21546Y39741D02*
D03*
X4146D02*
D03*
D23*
X19596Y35941D02*
D03*
X16596D02*
D03*
X15096D02*
D03*
X13596D02*
D03*
X12096D02*
D03*
X10596D02*
D03*
X9096D02*
D03*
X7596D02*
D03*
X6096D02*
D03*
X18096D02*
D03*
D39*
X9073Y21842D02*
D03*
Y20572D02*
D03*
Y24382D02*
D03*
Y23112D02*
D03*
X16073Y24382D02*
D03*
Y20572D02*
D03*
Y21842D02*
D03*
Y23112D02*
D03*
M02*
