G04*
G04 #@! TF.GenerationSoftware,Altium Limited,Altium Designer,26.6.0 (10)*
G04*
G04 Layer_Color=65535*
G04 Board_Origin=30950000|19250000*
%FSLAX43Y43*%
%MOMM*%
G71*
G04*
G04 #@! TF.SameCoordinates,63FFFFA2-F388-4527-97AD-106DB0FDC485*
G04*
G04*
G04 #@! TF.FilePolarity,Positive*
G04*
G01*
G75*
%ADD10C,0.200*%
%ADD11C,0.250*%
%ADD12C,0.500*%
%ADD13C,0.150*%
%ADD14C,0.254*%
%ADD15C,0.175*%
D10*
X5410Y20068D02*
G03*
X5410Y20318I0J125D01*
G01*
Y18768D02*
X8560D01*
Y21618D01*
X5410D02*
X8560D01*
X5410Y20318D02*
X5410Y21618D01*
Y18768D02*
Y20068D01*
X-254Y2285D02*
X2794D01*
X2794Y2286D02*
X2794Y23115D01*
X-254D02*
X-254Y2286D01*
X-254Y23115D02*
X2794D01*
X22606Y2285D02*
X25654D01*
X25654Y2286D02*
X25654Y23115D01*
X22606D02*
X22606Y2286D01*
X22606Y23115D02*
X25654D01*
X10959Y18060D02*
X18759D01*
Y21056D01*
X10959D02*
X18759D01*
X10959Y18060D02*
Y21056D01*
X3846Y41691D02*
X21846D01*
Y35691D02*
Y38416D01*
Y41066D02*
Y41691D01*
X3846Y35691D02*
X5371D01*
X20321D02*
X21846D01*
X3846D02*
Y38416D01*
Y41066D02*
Y41691D01*
X10088Y6621D02*
Y11921D01*
X13788Y6621D02*
Y11921D01*
X10088D02*
X13788D01*
X10088Y6621D02*
X13788D01*
D11*
X5410Y18143D02*
G03*
X5410Y18143I-125J0D01*
G01*
X11409Y15255D02*
G03*
X11409Y15255I-125J0D01*
G01*
X19721Y34016D02*
G03*
X19721Y34016I-125J0D01*
G01*
X9113Y12321D02*
G03*
X9113Y12321I-125J0D01*
G01*
X13684Y-1D02*
G03*
X13684Y-1999I50J-999D01*
G01*
X15335Y44925D02*
G03*
X15335Y42927I50J-999D01*
G01*
X25401Y28892D02*
G03*
X27399Y28892I999J50D01*
G01*
X-1999D02*
G03*
X-1Y28892I999J50D01*
G01*
Y23892D02*
G03*
X-1999Y23892I-999J-50D01*
G01*
X10335Y42927D02*
G03*
X10335Y44925I-50J999D01*
G01*
X8684Y-1999D02*
G03*
X8684Y-1I-50J999D01*
G01*
X27399Y23892D02*
G03*
X25401Y23892I-999J-50D01*
G01*
D12*
X11959Y18810D02*
G03*
X11959Y18810I-250J0D01*
G01*
D13*
X9667Y29448D02*
Y29832D01*
X8367Y29448D02*
X9667D01*
X8367D02*
Y29832D01*
Y32298D02*
X9667D01*
X8367Y31914D02*
Y32298D01*
X9667Y31914D02*
Y32298D01*
X15763Y29448D02*
Y29832D01*
X14463Y29448D02*
X15763D01*
X14463D02*
Y29832D01*
Y32298D02*
X15763D01*
X14463Y31914D02*
Y32298D01*
X15763Y31914D02*
Y32298D01*
X19797Y22058D02*
Y22442D01*
X21097Y22058D02*
Y22442D01*
X19797Y22058D02*
X21097D01*
Y24524D02*
Y24908D01*
X19797D02*
X21097D01*
X19797Y24524D02*
Y24908D01*
X5319Y23975D02*
Y24359D01*
X6619Y23975D02*
Y24359D01*
X5319Y23975D02*
X6619D01*
Y26441D02*
Y26825D01*
X5319D02*
X6619D01*
X5319Y26441D02*
Y26825D01*
X12401Y13843D02*
X12551D01*
Y12573D02*
Y13843D01*
X12401Y12573D02*
X12551D01*
X9801Y13843D02*
X9951D01*
X9801Y12573D02*
Y13843D01*
Y12573D02*
X9951D01*
X3772Y19370D02*
Y19753D01*
X5072D01*
Y19370D02*
Y19753D01*
X3772Y16903D02*
X5072D01*
Y17287D01*
X3772Y16903D02*
Y17287D01*
X14239Y29448D02*
Y29832D01*
X12939Y29448D02*
X14239D01*
X12939D02*
Y29832D01*
Y32298D02*
X14239D01*
X12939Y31914D02*
Y32298D01*
X14239Y31914D02*
Y32298D01*
X20335Y29448D02*
Y29832D01*
X19035Y29448D02*
X20335D01*
X19035D02*
Y29832D01*
Y32298D02*
X20335D01*
X19035Y31914D02*
Y32298D01*
X20335Y31914D02*
Y32298D01*
X10795Y24013D02*
Y24163D01*
X9525Y24013D02*
X10795D01*
X9525D02*
Y24163D01*
X10795Y26613D02*
Y26763D01*
X9525D02*
X10795D01*
X9525Y26613D02*
Y26763D01*
X19267Y18926D02*
X19650D01*
X19267D02*
Y20226D01*
X19650D01*
X22117Y18926D02*
Y20226D01*
X21733D02*
X22117D01*
X21733Y18926D02*
X22117D01*
X7814Y15311D02*
X8198D01*
X7814Y16611D02*
X8198D01*
Y15311D02*
Y16611D01*
X5348D02*
X5731D01*
X5348Y15311D02*
Y16611D01*
Y15311D02*
X5731D01*
X21745Y20323D02*
X22129D01*
X21745Y21623D02*
X22129D01*
Y20323D02*
Y21623D01*
X19279D02*
X19662D01*
X19279Y20323D02*
Y21623D01*
Y20323D02*
X19662D01*
X12401Y15240D02*
X12551D01*
Y13970D02*
Y15240D01*
X12401Y13970D02*
X12551D01*
X9801Y15240D02*
X9951D01*
X9801Y13970D02*
Y15240D01*
Y13970D02*
X9951D01*
X18811Y29448D02*
Y29832D01*
X17511Y29448D02*
X18811D01*
X17511D02*
Y29832D01*
Y32298D02*
X18811D01*
X17511Y31914D02*
Y32298D01*
X18811Y31914D02*
Y32298D01*
X3795Y26441D02*
Y26825D01*
X5095D01*
Y26441D02*
Y26825D01*
X3795Y23975D02*
X5095D01*
Y24359D01*
X3795Y23975D02*
Y24359D01*
X12715Y29448D02*
Y29832D01*
X11415Y29448D02*
X12715D01*
X11415D02*
Y29832D01*
Y32298D02*
X12715D01*
X11415Y31914D02*
Y32298D01*
X12715Y31914D02*
Y32298D01*
X11191Y29448D02*
Y29832D01*
X9891Y29448D02*
X11191D01*
X9891D02*
Y29832D01*
Y32298D02*
X11191D01*
X9891Y31914D02*
Y32298D01*
X11191Y31914D02*
Y32298D01*
X17287Y29448D02*
Y29832D01*
X15987Y29448D02*
X17287D01*
X15987D02*
Y29832D01*
Y32298D02*
X17287D01*
X15987Y31914D02*
Y32298D01*
X17287Y31914D02*
Y32298D01*
X8128Y26637D02*
Y26787D01*
X9398D01*
Y26637D02*
Y26787D01*
X8128Y24037D02*
Y24187D01*
Y24037D02*
X9398D01*
Y24187D01*
X21742Y17511D02*
X22126D01*
X21742Y18811D02*
X22126D01*
Y17511D02*
Y18811D01*
X19276D02*
X19660D01*
X19276Y17511D02*
Y18811D01*
Y17511D02*
X19660D01*
X21742Y16114D02*
X22126D01*
X21742Y17414D02*
X22126D01*
Y16114D02*
Y17414D01*
X19276D02*
X19660D01*
X19276Y16114D02*
Y17414D01*
Y16114D02*
X19660D01*
X5080Y13877D02*
Y14027D01*
X3810Y13877D02*
X5080D01*
X3810D02*
Y14027D01*
X5080Y16477D02*
Y16627D01*
X3810D02*
X5080D01*
X3810Y16477D02*
Y16627D01*
D14*
X5799Y3302D02*
X5376D01*
X5588D01*
Y2244D01*
X5376Y2032D01*
X5165D01*
X4953Y2244D01*
X6434Y2878D02*
X6857D01*
X7069Y2667D01*
Y2032D01*
X6434D01*
X6223Y2244D01*
X6434Y2455D01*
X7069D01*
X7492Y2878D02*
X7915Y2032D01*
X8339Y2878D01*
X8762Y2032D02*
X9185D01*
X8973D01*
Y2878D01*
X8762D01*
X10455Y2032D02*
X10031D01*
X9820Y2244D01*
Y2667D01*
X10031Y2878D01*
X10455D01*
X10666Y2667D01*
Y2455D01*
X9820D01*
X11089Y2878D02*
Y2032D01*
Y2455D01*
X11301Y2667D01*
X11513Y2878D01*
X11724D01*
X13629Y3302D02*
Y2032D01*
X14263D01*
X14475Y2244D01*
Y2455D01*
X14263Y2667D01*
X13629D01*
X14263D01*
X14475Y2878D01*
Y3090D01*
X14263Y3302D01*
X13629D01*
X14898Y2032D02*
Y2244D01*
X15110D01*
Y2032D01*
X14898D01*
X13346Y20444D02*
Y18920D01*
X13419Y20444D02*
Y18920D01*
X12911Y20444D02*
X12838Y20009D01*
Y20444D01*
X13927D01*
Y20009D01*
X13854Y20444D01*
X13128Y18920D02*
X13636D01*
X14217Y19501D02*
X15087D01*
Y19646D01*
X15015Y19791D01*
X14942Y19864D01*
X14797Y19936D01*
X14580D01*
X14362Y19864D01*
X14217Y19719D01*
X14144Y19501D01*
Y19356D01*
X14217Y19138D01*
X14362Y18993D01*
X14580Y18920D01*
X14725D01*
X14942Y18993D01*
X15087Y19138D01*
X15015Y19501D02*
Y19719D01*
X14942Y19864D01*
X14580Y19936D02*
X14434Y19864D01*
X14289Y19719D01*
X14217Y19501D01*
Y19356D01*
X14289Y19138D01*
X14434Y18993D01*
X14580Y18920D01*
X15755D02*
X15682Y18993D01*
X15610Y19211D01*
Y20444D01*
X15537D01*
Y19211D01*
X15610Y18993D01*
X15755Y18920D01*
X15900D01*
X16045Y18993D01*
X16118Y19138D01*
X15320Y19936D02*
X15900D01*
X16800D02*
X16582Y19864D01*
X16437Y19719D01*
X16364Y19501D01*
Y19356D01*
X16437Y19138D01*
X16582Y18993D01*
X16800Y18920D01*
X16945D01*
X17163Y18993D01*
X17308Y19138D01*
X17380Y19356D01*
Y19501D01*
X17308Y19719D01*
X17163Y19864D01*
X16945Y19936D01*
X16800D01*
X16655Y19864D01*
X16510Y19719D01*
X16437Y19501D01*
Y19356D01*
X16510Y19138D01*
X16655Y18993D01*
X16800Y18920D01*
X16945D02*
X17090Y18993D01*
X17235Y19138D01*
X17308Y19356D01*
Y19501D01*
X17235Y19719D01*
X17090Y19864D01*
X16945Y19936D01*
X2288Y42928D02*
G03*
X0Y40640I0J-2288D01*
G01*
X25400D02*
G03*
X23112Y42928I-2288J0D01*
G01*
X2288D02*
X23112D01*
X-7301Y-7301D02*
X32704D01*
X25400Y40640D02*
X25400Y2540D01*
X-7302Y0D02*
Y50227D01*
X0Y0D02*
Y40640D01*
X-1999Y44925D02*
X10335D01*
X-1999Y-1999D02*
Y23892D01*
X22860Y0D02*
X25400Y2540D01*
X32704Y-7301D02*
Y50227D01*
X0Y0D02*
X22860D01*
X-7302Y50227D02*
X32704D01*
X15335Y44925D02*
X27399D01*
Y-1999D02*
Y23892D01*
X-1999Y28892D02*
Y44925D01*
X-7302Y0D02*
X-7301D01*
Y-7301D02*
Y0D01*
X13684Y-1999D02*
X27399D01*
Y28892D02*
Y44925D01*
X-1999Y-1999D02*
X8684D01*
D15*
X19514Y12427D02*
Y13227D01*
X19914D01*
X20047Y13094D01*
Y12827D01*
X19914Y12694D01*
X19514D01*
X19781D02*
X20047Y12427D01*
X20847D02*
X20314D01*
X20847Y12960D01*
Y13094D01*
X20714Y13227D01*
X20447D01*
X20314Y13094D01*
X21113Y12427D02*
X21380D01*
X21247D01*
Y13227D01*
X21113Y13094D01*
X5836Y14158D02*
X5702Y14291D01*
X5436D01*
X5302Y14158D01*
Y13625D01*
X5436Y13492D01*
X5702D01*
X5836Y13625D01*
X6102Y13492D02*
X6369D01*
X6235D01*
Y14291D01*
X6102Y14158D01*
X8750Y22981D02*
X8617Y22847D01*
Y22581D01*
X8750Y22448D01*
X9284D01*
X9417Y22581D01*
Y22847D01*
X9284Y22981D01*
X9417Y23780D02*
Y23247D01*
X8884Y23780D01*
X8750D01*
X8617Y23647D01*
Y23381D01*
X8750Y23247D01*
X8351Y6242D02*
Y5575D01*
X8484Y5442D01*
X8750D01*
X8884Y5575D01*
Y6242D01*
X9150Y6109D02*
X9284Y6242D01*
X9550D01*
X9683Y6109D01*
Y5975D01*
X9550Y5842D01*
X9417D01*
X9550D01*
X9683Y5709D01*
Y5575D01*
X9550Y5442D01*
X9284D01*
X9150Y5575D01*
X9887Y20162D02*
X10554D01*
X10687Y20295D01*
Y20561D01*
X10554Y20695D01*
X9887D01*
X10687Y21494D02*
Y20961D01*
X10154Y21494D01*
X10020D01*
X9887Y21361D01*
Y21095D01*
X10020Y20961D01*
X8490Y17374D02*
X9157D01*
X9290Y17507D01*
Y17774D01*
X9157Y17907D01*
X8490D01*
X9290Y18174D02*
Y18440D01*
Y18307D01*
X8490D01*
X8623Y18174D01*
X9417Y32608D02*
X8617D01*
Y33007D01*
X8750Y33141D01*
X9017D01*
X9150Y33007D01*
Y32608D01*
Y32874D02*
X9417Y33141D01*
X8750Y33407D02*
X8617Y33541D01*
Y33807D01*
X8750Y33940D01*
X8884D01*
X9017Y33807D01*
X9150Y33940D01*
X9284D01*
X9417Y33807D01*
Y33541D01*
X9284Y33407D01*
X9150D01*
X9017Y33541D01*
X8884Y33407D01*
X8750D01*
X9017Y33541D02*
Y33807D01*
X10941Y32608D02*
X10141D01*
Y33007D01*
X10274Y33141D01*
X10541D01*
X10674Y33007D01*
Y32608D01*
Y32874D02*
X10941Y33141D01*
X10141Y33407D02*
Y33940D01*
X10274D01*
X10808Y33407D01*
X10941D01*
X12465Y32608D02*
X11665D01*
Y33007D01*
X11798Y33141D01*
X12065D01*
X12198Y33007D01*
Y32608D01*
Y32874D02*
X12465Y33141D01*
X11665Y33940D02*
X11798Y33674D01*
X12065Y33407D01*
X12332D01*
X12465Y33541D01*
Y33807D01*
X12332Y33940D01*
X12198D01*
X12065Y33807D01*
Y33407D01*
X13989Y32608D02*
X13189D01*
Y33007D01*
X13322Y33141D01*
X13589D01*
X13722Y33007D01*
Y32608D01*
Y32874D02*
X13989Y33141D01*
X13189Y33940D02*
Y33407D01*
X13589D01*
X13456Y33674D01*
Y33807D01*
X13589Y33940D01*
X13856D01*
X13989Y33807D01*
Y33541D01*
X13856Y33407D01*
X15513Y32608D02*
X14713D01*
Y33007D01*
X14846Y33141D01*
X15113D01*
X15246Y33007D01*
Y32608D01*
Y32874D02*
X15513Y33141D01*
Y33807D02*
X14713D01*
X15113Y33407D01*
Y33940D01*
X17037Y32608D02*
X16237D01*
Y33007D01*
X16370Y33141D01*
X16637D01*
X16770Y33007D01*
Y32608D01*
Y32874D02*
X17037Y33141D01*
X16370Y33407D02*
X16237Y33541D01*
Y33807D01*
X16370Y33940D01*
X16504D01*
X16637Y33807D01*
Y33674D01*
Y33807D01*
X16770Y33940D01*
X16904D01*
X17037Y33807D01*
Y33541D01*
X16904Y33407D01*
X18561Y32608D02*
X17761D01*
Y33007D01*
X17894Y33141D01*
X18161D01*
X18294Y33007D01*
Y32608D01*
Y32874D02*
X18561Y33141D01*
Y33940D02*
Y33407D01*
X18028Y33940D01*
X17894D01*
X17761Y33807D01*
Y33541D01*
X17894Y33407D01*
X20085Y32614D02*
X19285D01*
Y33014D01*
X19418Y33147D01*
X19685D01*
X19818Y33014D01*
Y32614D01*
Y32880D02*
X20085Y33147D01*
Y33414D02*
Y33680D01*
Y33547D01*
X19285D01*
X19418Y33414D01*
X19577Y23699D02*
X18777D01*
Y24099D01*
X18910Y24232D01*
X19177D01*
X19310Y24099D01*
Y23699D01*
Y23965D02*
X19577Y24232D01*
Y25032D02*
Y24498D01*
X19044Y25032D01*
X18910D01*
X18777Y24898D01*
Y24632D01*
X18910Y24498D01*
X18777Y25831D02*
Y25298D01*
X19177D01*
X19044Y25565D01*
Y25698D01*
X19177Y25831D01*
X19444D01*
X19577Y25698D01*
Y25431D01*
X19444Y25298D01*
X19508Y11284D02*
Y12084D01*
X19908D01*
X20041Y11951D01*
Y11684D01*
X19908Y11551D01*
X19508D01*
X19774D02*
X20041Y11284D01*
X20841D02*
X20307D01*
X20841Y11817D01*
Y11951D01*
X20707Y12084D01*
X20441D01*
X20307Y11951D01*
X21507Y11284D02*
Y12084D01*
X21107Y11684D01*
X21640D01*
X19508Y13570D02*
Y14370D01*
X19908D01*
X20041Y14237D01*
Y13970D01*
X19908Y13837D01*
X19508D01*
X19774D02*
X20041Y13570D01*
X20841D02*
X20307D01*
X20841Y14103D01*
Y14237D01*
X20707Y14370D01*
X20441D01*
X20307Y14237D01*
X21107D02*
X21240Y14370D01*
X21507D01*
X21640Y14237D01*
Y14103D01*
X21507Y13970D01*
X21374D01*
X21507D01*
X21640Y13837D01*
Y13703D01*
X21507Y13570D01*
X21240D01*
X21107Y13703D01*
X19508Y14713D02*
Y15513D01*
X19908D01*
X20041Y15380D01*
Y15113D01*
X19908Y14980D01*
X19508D01*
X19774D02*
X20041Y14713D01*
X20841D02*
X20307D01*
X20841Y15246D01*
Y15380D01*
X20707Y15513D01*
X20441D01*
X20307Y15380D01*
X21640Y14713D02*
X21107D01*
X21640Y15246D01*
Y15380D01*
X21507Y15513D01*
X21240D01*
X21107Y15380D01*
X6115Y27255D02*
X5315D01*
Y27655D01*
X5448Y27788D01*
X5715D01*
X5848Y27655D01*
Y27255D01*
Y27521D02*
X6115Y27788D01*
Y28588D02*
Y28054D01*
X5582Y28588D01*
X5448D01*
X5315Y28454D01*
Y28188D01*
X5448Y28054D01*
Y28854D02*
X5315Y28987D01*
Y29254D01*
X5448Y29387D01*
X5982D01*
X6115Y29254D01*
Y28987D01*
X5982Y28854D01*
X5448D01*
X4972Y27321D02*
X4172D01*
Y27721D01*
X4305Y27854D01*
X4572D01*
X4705Y27721D01*
Y27321D01*
Y27588D02*
X4972Y27854D01*
Y28121D02*
Y28388D01*
Y28254D01*
X4172D01*
X4305Y28121D01*
X4839Y28788D02*
X4972Y28921D01*
Y29187D01*
X4839Y29321D01*
X4305D01*
X4172Y29187D01*
Y28921D01*
X4305Y28788D01*
X4439D01*
X4572Y28921D01*
Y29321D01*
X4813Y20046D02*
X4013D01*
Y20446D01*
X4146Y20579D01*
X4413D01*
X4546Y20446D01*
Y20046D01*
Y20312D02*
X4813Y20579D01*
Y20846D02*
Y21112D01*
Y20979D01*
X4013D01*
X4146Y20846D01*
Y21512D02*
X4013Y21645D01*
Y21912D01*
X4146Y22045D01*
X4280D01*
X4413Y21912D01*
X4546Y22045D01*
X4680D01*
X4813Y21912D01*
Y21645D01*
X4680Y21512D01*
X4546D01*
X4413Y21645D01*
X4280Y21512D01*
X4146D01*
X4413Y21645D02*
Y21912D01*
X7325Y14243D02*
Y15043D01*
X7725D01*
X7858Y14910D01*
Y14643D01*
X7725Y14510D01*
X7325D01*
X7591D02*
X7858Y14243D01*
X8124D02*
X8391D01*
X8258D01*
Y15043D01*
X8124Y14910D01*
X8791Y15043D02*
X9324D01*
Y14910D01*
X8791Y14377D01*
Y14243D01*
X23337Y23603D02*
Y24403D01*
X23736D01*
X23870Y24270D01*
Y24003D01*
X23736Y23870D01*
X23337D01*
X24669Y23603D02*
X24136D01*
X24669Y24136D01*
Y24270D01*
X24536Y24403D01*
X24270D01*
X24136Y24270D01*
X864Y23603D02*
Y24403D01*
X1264D01*
X1397Y24270D01*
Y24003D01*
X1264Y23870D01*
X864D01*
X1664Y23603D02*
X1930D01*
X1797D01*
Y24403D01*
X1664Y24270D01*
X2794Y41929D02*
X2527D01*
X2661D01*
Y41262D01*
X2527Y41129D01*
X2394D01*
X2261Y41262D01*
X3061Y41129D02*
X3327D01*
X3194D01*
Y41929D01*
X3061Y41796D01*
X13329Y13475D02*
X13195Y13608D01*
X12929D01*
X12796Y13475D01*
Y12941D01*
X12929Y12808D01*
X13195D01*
X13329Y12941D01*
X14128Y13608D02*
X13862Y13475D01*
X13595Y13208D01*
Y12941D01*
X13729Y12808D01*
X13995D01*
X14128Y12941D01*
Y13075D01*
X13995Y13208D01*
X13595D01*
X13329Y14999D02*
X13195Y15132D01*
X12929D01*
X12796Y14999D01*
Y14465D01*
X12929Y14332D01*
X13195D01*
X13329Y14465D01*
X14128Y15132D02*
X13595D01*
Y14732D01*
X13862Y14865D01*
X13995D01*
X14128Y14732D01*
Y14465D01*
X13995Y14332D01*
X13729D01*
X13595Y14465D01*
X9766Y22981D02*
X9633Y22847D01*
Y22581D01*
X9766Y22448D01*
X10300D01*
X10433Y22581D01*
Y22847D01*
X10300Y22981D01*
X10433Y23647D02*
X9633D01*
X10033Y23247D01*
Y23780D01*
M02*
