G04*
G04 #@! TF.GenerationSoftware,Altium Limited,Altium Designer,26.6.0 (10)*
G04*
G04 Layer_Color=8388736*
G04 Board_Origin=30950000|19250000*
%FSLAX43Y43*%
%MOMM*%
G71*
G04*
G04 #@! TF.SameCoordinates,0535685A-DFC4-4527-B4F2-3BE9C4C73D04*
G04*
G04*
G04 #@! TF.FilePolarity,Positive*
G04*
G01*
G75*
%ADD10C,0.250*%
%ADD14C,0.254*%
D10*
X-1Y24000D02*
G03*
X-1999Y24000I-999J-50D01*
G01*
Y29000D02*
G03*
X-1Y29000I999J50D01*
G01*
X13684Y-1D02*
G03*
X13684Y-1999I50J-999D01*
G01*
X25401Y28892D02*
G03*
X27399Y28892I999J50D01*
G01*
X8684Y-1999D02*
G03*
X8684Y-1I-50J999D01*
G01*
X27399Y23892D02*
G03*
X25401Y23892I-999J-50D01*
G01*
D14*
X2288Y42928D02*
G03*
X0Y40640I0J-2288D01*
G01*
X25400D02*
G03*
X23112Y42928I-2288J0D01*
G01*
X27399Y43000D02*
X32704D01*
X27399Y37695D02*
Y43000D01*
Y28892D02*
Y37695D01*
X32704Y-7301D02*
Y43000D01*
X-1999Y37697D02*
Y43000D01*
X-7302D02*
X-1999D01*
X-7302Y0D02*
Y43000D01*
X2288Y42928D02*
X23112D01*
X-7301Y-7301D02*
X32704D01*
X25400Y40640D02*
X25400Y2540D01*
X0Y0D02*
Y40640D01*
X-1999Y-1999D02*
Y23892D01*
X22860Y0D02*
X25400Y2540D01*
X0Y0D02*
X22860D01*
X27399Y-1999D02*
Y23892D01*
X-1999Y28892D02*
Y37697D01*
X-7302Y0D02*
X-7301D01*
Y-7301D02*
Y0D01*
X13684Y-1999D02*
X27399D01*
X-1999D02*
X8684D01*
M02*
