G04*
G04 #@! TF.GenerationSoftware,Altium Limited,Altium Designer,26.6.0 (10)*
G04*
G04 Layer_Physical_Order=2*
G04 Layer_Color=16711680*
G04 Board_Origin=30950000|19250000*
%FSLAX43Y43*%
%MOMM*%
G71*
G04*
G04 #@! TF.SameCoordinates,63FFFFA2-F388-4527-97AD-106DB0FDC485*
G04*
G04*
G04 #@! TF.FilePolarity,Positive*
G04*
G01*
G75*
%ADD10C,0.200*%
%ADD11C,0.250*%
%ADD14C,0.254*%
%ADD16R,0.800X0.800*%
%ADD21R,0.700X2.900*%
%ADD22R,1.100X1.900*%
%ADD34C,0.300*%
%ADD35C,1.550*%
%ADD36R,1.550X1.550*%
%ADD37C,1.500*%
%ADD38C,0.600*%
%ADD39R,1.750X0.760*%
%ADD40C,0.254*%
G36*
X23779Y42840D02*
X24196Y42668D01*
X24570Y42417D01*
X24889Y42099D01*
X25140Y41724D01*
X25312Y41307D01*
X25400Y40865D01*
Y40640D01*
Y29351D01*
X25224Y29316D01*
X25076Y29216D01*
X24976Y29068D01*
X24941Y28892D01*
X24976Y28716D01*
X25076Y28568D01*
X25224Y28469D01*
X25224Y28464D01*
Y28320D01*
X25224Y28315D01*
X25076Y28216D01*
X24976Y28068D01*
X24941Y27892D01*
X24976Y27716D01*
X25076Y27568D01*
X25224Y27469D01*
X25224Y27464D01*
Y27320D01*
X25224Y27315D01*
X25076Y27216D01*
X24976Y27068D01*
X24941Y26892D01*
X24976Y26716D01*
X25076Y26568D01*
X25224Y26469D01*
X25224Y26464D01*
Y26320D01*
X25224Y26315D01*
X25076Y26216D01*
X24976Y26068D01*
X24941Y25892D01*
X24976Y25716D01*
X25076Y25568D01*
X25224Y25469D01*
X25224Y25464D01*
Y25320D01*
X25224Y25315D01*
X25076Y25216D01*
X24976Y25068D01*
X24941Y24892D01*
X24976Y24716D01*
X25076Y24568D01*
X25224Y24469D01*
X25224Y24464D01*
Y24320D01*
X25224Y24315D01*
X25076Y24216D01*
X24976Y24068D01*
X24941Y23892D01*
X24976Y23716D01*
X25076Y23568D01*
X25224Y23468D01*
X25400Y23433D01*
Y2540D01*
X22860Y0D01*
X14143D01*
X14108Y176D01*
X14008Y324D01*
X13860Y424D01*
X13684Y459D01*
X13508Y424D01*
X13360Y324D01*
X13261Y176D01*
X13256Y176D01*
X13112D01*
X13107Y176D01*
X13008Y324D01*
X12860Y424D01*
X12684Y459D01*
X12508Y424D01*
X12360Y324D01*
X12261Y176D01*
X12256Y176D01*
X12112D01*
X12107Y176D01*
X12008Y324D01*
X11860Y424D01*
X11684Y459D01*
X11508Y424D01*
X11360Y324D01*
X11261Y176D01*
X11256Y176D01*
X11112D01*
X11107Y176D01*
X11008Y324D01*
X10860Y424D01*
X10684Y459D01*
X10508Y424D01*
X10360Y324D01*
X10261Y176D01*
X10256Y176D01*
X10112D01*
X10107Y176D01*
X10008Y324D01*
X9860Y424D01*
X9684Y459D01*
X9508Y424D01*
X9360Y324D01*
X9261Y176D01*
X9256Y176D01*
X9112D01*
X9107Y176D01*
X9008Y324D01*
X8860Y424D01*
X8684Y459D01*
X8508Y424D01*
X8360Y324D01*
X8260Y176D01*
X8225Y0D01*
X0D01*
X0Y23433D01*
X176Y23468D01*
X324Y23568D01*
X424Y23716D01*
X459Y23892D01*
X424Y24068D01*
X324Y24216D01*
X176Y24315D01*
X176Y24320D01*
Y24464D01*
X176Y24469D01*
X324Y24568D01*
X424Y24716D01*
X459Y24892D01*
X424Y25068D01*
X324Y25216D01*
X176Y25315D01*
X176Y25320D01*
Y25464D01*
X176Y25469D01*
X324Y25568D01*
X424Y25716D01*
X459Y25892D01*
X424Y26068D01*
X324Y26216D01*
X176Y26315D01*
X176Y26320D01*
Y26464D01*
X176Y26469D01*
X324Y26568D01*
X424Y26716D01*
X459Y26892D01*
X424Y27068D01*
X324Y27216D01*
X176Y27315D01*
X176Y27320D01*
Y27464D01*
X176Y27469D01*
X324Y27568D01*
X424Y27716D01*
X459Y27892D01*
X424Y28068D01*
X324Y28216D01*
X176Y28315D01*
X176Y28320D01*
Y28464D01*
X176Y28469D01*
X324Y28568D01*
X424Y28716D01*
X459Y28892D01*
X424Y29068D01*
X324Y29216D01*
X176Y29316D01*
X0Y29351D01*
Y40640D01*
Y40865D01*
X88Y41307D01*
X260Y41724D01*
X511Y42099D01*
X830Y42417D01*
X1204Y42668D01*
X1621Y42840D01*
X2063Y42928D01*
X9874D01*
X9876Y42926D01*
X9911Y42750D01*
X10011Y42602D01*
X10159Y42502D01*
X10335Y42467D01*
X10511Y42502D01*
X10659Y42602D01*
X10758Y42750D01*
X10763Y42750D01*
X10907D01*
X10912Y42750D01*
X11011Y42602D01*
X11159Y42502D01*
X11335Y42467D01*
X11511Y42502D01*
X11659Y42602D01*
X11758Y42750D01*
X11763Y42750D01*
X11907D01*
X11912Y42750D01*
X12011Y42602D01*
X12159Y42502D01*
X12335Y42467D01*
X12511Y42502D01*
X12659Y42602D01*
X12758Y42750D01*
X12763Y42750D01*
X12907D01*
X12912Y42750D01*
X13011Y42602D01*
X13159Y42502D01*
X13335Y42467D01*
X13511Y42502D01*
X13659Y42602D01*
X13758Y42750D01*
X13763Y42750D01*
X13907D01*
X13912Y42750D01*
X14011Y42602D01*
X14159Y42502D01*
X14335Y42467D01*
X14511Y42502D01*
X14659Y42602D01*
X14758Y42750D01*
X14763Y42750D01*
X14907D01*
X14912Y42750D01*
X15011Y42602D01*
X15159Y42502D01*
X15335Y42467D01*
X15511Y42502D01*
X15659Y42602D01*
X15759Y42750D01*
X15794Y42926D01*
X15796Y42928D01*
X23337D01*
X23779Y42840D01*
D02*
G37*
%LPC*%
G36*
X4846Y40841D02*
X4221D01*
Y39816D01*
X4846D01*
Y40841D01*
D02*
G37*
G36*
X22246D02*
X21621D01*
Y39816D01*
X22246D01*
Y40841D01*
D02*
G37*
G36*
X21471D02*
X20846D01*
Y39816D01*
X21471D01*
Y40841D01*
D02*
G37*
G36*
X4071D02*
X3446D01*
Y39816D01*
X4071D01*
Y40841D01*
D02*
G37*
G36*
X22246Y39666D02*
X21621D01*
Y38641D01*
X22246D01*
Y39666D01*
D02*
G37*
G36*
X21471D02*
X20846D01*
Y38641D01*
X21471D01*
Y39666D01*
D02*
G37*
G36*
X4846D02*
X4221D01*
Y38641D01*
X4846D01*
Y39666D01*
D02*
G37*
G36*
X4071D02*
X3446D01*
Y38641D01*
X4071D01*
Y39666D01*
D02*
G37*
G36*
X20096Y37541D02*
X19671D01*
Y36016D01*
X20096D01*
Y37541D01*
D02*
G37*
G36*
X19521D02*
X19096D01*
Y36016D01*
X19521D01*
Y37541D01*
D02*
G37*
G36*
X20096Y35866D02*
X19671D01*
Y34341D01*
X20096D01*
Y35866D01*
D02*
G37*
G36*
X19521D02*
X19096D01*
Y34341D01*
X19521D01*
Y35866D01*
D02*
G37*
G36*
X17096Y37541D02*
X16096D01*
Y34341D01*
X16382D01*
Y32173D01*
X16087D01*
Y31073D01*
X17187D01*
Y32173D01*
X16892D01*
Y34341D01*
X17096D01*
Y37541D01*
D02*
G37*
G36*
X15596D02*
X14596D01*
Y34341D01*
X14858D01*
Y32173D01*
X14563D01*
Y31073D01*
X15663D01*
Y32173D01*
X15368D01*
Y34341D01*
X15596D01*
Y37541D01*
D02*
G37*
G36*
X14096D02*
X13096D01*
Y34341D01*
X13334D01*
Y32173D01*
X13039D01*
Y31073D01*
X14139D01*
Y32173D01*
X13844D01*
Y34341D01*
X14096D01*
Y37541D01*
D02*
G37*
G36*
X12596D02*
X11596D01*
Y34341D01*
X11810D01*
Y32173D01*
X11515D01*
Y31073D01*
X12615D01*
Y32173D01*
X12320D01*
Y34341D01*
X12596D01*
Y37541D01*
D02*
G37*
G36*
X11096D02*
X10096D01*
Y34341D01*
X10286D01*
Y32173D01*
X9991D01*
Y31073D01*
X11091D01*
Y32173D01*
X10796D01*
Y34341D01*
X11096D01*
Y37541D01*
D02*
G37*
G36*
X9596D02*
X8596D01*
Y34341D01*
X8762D01*
Y32173D01*
X8467D01*
Y31073D01*
X9567D01*
Y32173D01*
X9272D01*
Y34341D01*
X9596D01*
Y37541D01*
D02*
G37*
G36*
X7846Y37546D02*
X7821Y37541D01*
X7096D01*
Y34341D01*
X7238D01*
Y32173D01*
X6943D01*
Y31073D01*
X8043D01*
Y32173D01*
X7748D01*
Y34341D01*
X8096D01*
Y37266D01*
X8101Y37291D01*
X8096Y37316D01*
Y37541D01*
X7871D01*
X7846Y37546D01*
D02*
G37*
G36*
X6596Y37541D02*
X5596D01*
Y34341D01*
X5714D01*
Y32173D01*
X5419D01*
Y31073D01*
X6519D01*
Y32173D01*
X6224D01*
Y34341D01*
X6596D01*
Y37541D01*
D02*
G37*
G36*
X17363Y38597D02*
X17187Y38562D01*
X17038Y38463D01*
X16939Y38314D01*
X16904Y38139D01*
X16939Y37963D01*
X17038Y37814D01*
X17187Y37715D01*
X17340Y37684D01*
X17352Y37679D01*
X17353Y37678D01*
X17353Y37678D01*
X17356Y37677D01*
X17362Y37676D01*
X17363Y37676D01*
X17369Y37674D01*
X17377Y37669D01*
X17388Y37662D01*
X17400Y37654D01*
X17436Y37623D01*
X17455Y37605D01*
X17470Y37599D01*
X17596Y37473D01*
Y34341D01*
X17790D01*
Y23418D01*
X17098D01*
Y23642D01*
X15066D01*
Y23852D01*
X17098D01*
Y24912D01*
X15066D01*
Y27992D01*
X16517Y29443D01*
X16572Y29526D01*
X16582Y29573D01*
X17187D01*
Y30673D01*
X16087D01*
Y29848D01*
X16082Y29823D01*
Y29729D01*
X14631Y28278D01*
X14576Y28195D01*
X14556Y28097D01*
Y10571D01*
X13506Y9520D01*
X13502Y9514D01*
X13343Y9483D01*
X13194Y9383D01*
X13189Y9376D01*
X13039Y9422D01*
Y10504D01*
X13189Y10550D01*
X13244Y10467D01*
X13393Y10368D01*
X13569Y10333D01*
X13744Y10368D01*
X13893Y10467D01*
X13993Y10616D01*
X14028Y10792D01*
X14022Y10818D01*
X14312Y11108D01*
X14367Y11191D01*
X14387Y11288D01*
Y28747D01*
X14995Y29355D01*
X15050Y29438D01*
X15070Y29536D01*
Y29573D01*
X15663D01*
Y30673D01*
X14563D01*
Y29841D01*
X14560Y29825D01*
Y29641D01*
X13952Y29033D01*
X13896Y28950D01*
X13877Y28853D01*
Y11394D01*
X13735Y11252D01*
X13600Y11274D01*
X13551Y11413D01*
X13647Y11509D01*
X13702Y11591D01*
X13722Y11689D01*
Y29573D01*
X14139D01*
Y30673D01*
X13039D01*
Y29573D01*
X13212D01*
Y12526D01*
X13077Y12446D01*
X12962Y12500D01*
Y28645D01*
X12943Y28743D01*
X12887Y28826D01*
X12412Y29301D01*
Y29573D01*
X12615D01*
Y30673D01*
X11515D01*
Y29764D01*
X11365Y29702D01*
X11091Y29976D01*
Y30673D01*
X9991D01*
Y29573D01*
X10773D01*
X11241Y29105D01*
X11241Y29105D01*
X12077Y28268D01*
Y12074D01*
X11927Y11990D01*
X11905Y12003D01*
Y27311D01*
X11885Y27408D01*
X11830Y27491D01*
X9572Y29749D01*
Y29823D01*
X9567Y29848D01*
Y30673D01*
X8467D01*
Y29573D01*
X9076D01*
X9082Y29546D01*
X9137Y29463D01*
X11395Y27205D01*
Y11776D01*
X11379Y11758D01*
X11229Y11817D01*
Y26372D01*
X11209Y26470D01*
X11154Y26552D01*
X8043Y29663D01*
Y30673D01*
X6943D01*
Y29573D01*
X7516D01*
X7534Y29478D01*
X7590Y29395D01*
X10719Y26266D01*
Y10885D01*
X10712Y10881D01*
X10562Y10966D01*
Y25483D01*
X10543Y25580D01*
X10487Y25663D01*
X6519Y29632D01*
Y30673D01*
X5419D01*
Y29573D01*
X5975D01*
Y29560D01*
X5995Y29462D01*
X6050Y29380D01*
X10052Y25377D01*
Y24912D01*
X8507D01*
X8426Y25060D01*
X8449Y25177D01*
X8449Y25177D01*
Y26233D01*
X8426Y26350D01*
X8359Y26449D01*
X8359Y26449D01*
X7212Y27597D01*
X7206Y27611D01*
X7168Y27653D01*
X7156Y27667D01*
X7147Y27680D01*
X7140Y27691D01*
X7135Y27700D01*
X7133Y27705D01*
X7133Y27706D01*
X7132Y27712D01*
X7131Y27715D01*
X7131Y27716D01*
X7130Y27717D01*
X7124Y27728D01*
X7094Y27881D01*
X6995Y28030D01*
X6846Y28130D01*
X6670Y28164D01*
X6495Y28130D01*
X6346Y28030D01*
X6322Y27995D01*
X6312Y27990D01*
X6312Y27990D01*
X6311Y27990D01*
X6311Y27989D01*
X6307Y27988D01*
X6304Y27986D01*
X6301Y27984D01*
X6301Y27983D01*
X6296Y27981D01*
X6286Y27979D01*
X6275Y27976D01*
X6231Y27972D01*
X6205Y27972D01*
X6193Y27966D01*
X6179Y27969D01*
X6173Y27965D01*
X5658D01*
X5658Y27965D01*
X5540Y27942D01*
X5441Y27875D01*
X5441Y27875D01*
X4566Y27000D01*
X4500Y26901D01*
X4476Y26784D01*
X4476Y26784D01*
Y17697D01*
X4476Y17697D01*
X4500Y17580D01*
X4566Y17480D01*
X5790Y16256D01*
X5790Y16256D01*
X5889Y16190D01*
X6006Y16167D01*
X8341D01*
X8355Y16160D01*
X8412Y16158D01*
X8430Y16156D01*
X8446Y16154D01*
X8459Y16151D01*
X8468Y16148D01*
X8473Y16146D01*
X8474Y16145D01*
X8479Y16141D01*
X8482Y16140D01*
X8482Y16140D01*
X8484Y16139D01*
X8495Y16135D01*
X8625Y16049D01*
X8801Y16014D01*
X8976Y16049D01*
X9125Y16148D01*
X9225Y16297D01*
X9260Y16473D01*
X9225Y16648D01*
X9125Y16797D01*
X8976Y16897D01*
X8801Y16931D01*
X8625Y16897D01*
X8495Y16810D01*
X8484Y16806D01*
X8482Y16805D01*
X8482Y16805D01*
X8479Y16804D01*
X8474Y16800D01*
X8473Y16800D01*
X8468Y16797D01*
X8459Y16795D01*
X8446Y16792D01*
X8432Y16789D01*
X8385Y16785D01*
X8358Y16785D01*
X8343Y16778D01*
X6133D01*
X5088Y17823D01*
Y26657D01*
X5784Y27353D01*
X6246D01*
X6261Y27347D01*
X6291Y27346D01*
X6315Y27345D01*
X6359Y27341D01*
X6373Y27339D01*
X6385Y27336D01*
X6394Y27334D01*
X6398Y27332D01*
X6403Y27329D01*
X6405Y27328D01*
X6406Y27328D01*
X6408Y27328D01*
X6432Y27323D01*
X6495Y27282D01*
X6648Y27251D01*
X6659Y27246D01*
X6660Y27245D01*
X6661Y27245D01*
X6663Y27244D01*
X6669Y27243D01*
X6671Y27243D01*
X6676Y27241D01*
X6684Y27236D01*
X6695Y27229D01*
X6707Y27221D01*
X6743Y27190D01*
X6762Y27172D01*
X6777Y27166D01*
X7837Y26106D01*
Y25937D01*
X7687Y25855D01*
X7543Y25884D01*
X7367Y25849D01*
X7218Y25750D01*
X7119Y25601D01*
X7084Y25425D01*
X7100Y25346D01*
X5448Y23695D01*
X5393Y23612D01*
X5374Y23515D01*
Y20563D01*
X5393Y20466D01*
X5448Y20383D01*
X5911Y19920D01*
X5994Y19865D01*
X6092Y19845D01*
X6976D01*
X7073Y19865D01*
X7156Y19920D01*
X7322Y20086D01*
X7404Y20070D01*
X7580Y20105D01*
X7729Y20204D01*
X7828Y20353D01*
X7863Y20529D01*
X7828Y20704D01*
X7729Y20853D01*
X7580Y20953D01*
X7404Y20988D01*
X7229Y20953D01*
X7080Y20853D01*
X6980Y20704D01*
X6945Y20529D01*
X6957Y20469D01*
X6856Y20355D01*
X6197D01*
X5884Y20669D01*
Y23409D01*
X7258Y24784D01*
X7419Y24733D01*
X7419Y24731D01*
X7414Y24693D01*
X7324Y24559D01*
X7289Y24383D01*
X7324Y24207D01*
X7424Y24059D01*
X7572Y23959D01*
X7748Y23924D01*
X7898Y23954D01*
X8048Y23876D01*
Y23852D01*
X10052D01*
Y23642D01*
X8048D01*
Y23367D01*
X7571D01*
X7415Y23522D01*
X7431Y23604D01*
X7396Y23780D01*
X7297Y23929D01*
X7148Y24028D01*
X6972Y24063D01*
X6797Y24028D01*
X6648Y23929D01*
X6549Y23780D01*
X6514Y23604D01*
X6549Y23429D01*
X6648Y23280D01*
X6797Y23181D01*
X6972Y23146D01*
X7054Y23162D01*
X7285Y22932D01*
X7367Y22877D01*
X7465Y22857D01*
X8048D01*
Y22582D01*
X10052D01*
Y22372D01*
X8048D01*
Y22097D01*
X7231D01*
X7134Y22077D01*
X7051Y22022D01*
X6585Y21556D01*
X6527Y21568D01*
X6351Y21533D01*
X6202Y21433D01*
X6103Y21285D01*
X6068Y21109D01*
X6103Y20933D01*
X6202Y20785D01*
X6351Y20685D01*
X6527Y20650D01*
X6702Y20685D01*
X6851Y20785D01*
X6950Y20933D01*
X6985Y21109D01*
X6964Y21215D01*
X7337Y21587D01*
X8048D01*
Y21312D01*
X10052D01*
Y21102D01*
X8048D01*
Y20042D01*
X8611D01*
X8617Y20014D01*
X8716Y19865D01*
X8865Y19766D01*
X9041Y19731D01*
X9216Y19766D01*
X9365Y19865D01*
X9465Y20014D01*
X9470Y20042D01*
X10052D01*
Y9938D01*
X10072Y9840D01*
X10127Y9758D01*
X10484Y9400D01*
X10567Y9345D01*
X10665Y9326D01*
X11055D01*
X11059Y9321D01*
X11207Y9221D01*
X11383Y9186D01*
X11559Y9221D01*
X11707Y9321D01*
X11807Y9469D01*
X11842Y9645D01*
X11807Y9821D01*
X11707Y9969D01*
X11559Y10069D01*
X11508Y10079D01*
X11392Y10168D01*
X11403Y10241D01*
X11423Y10346D01*
X11388Y10522D01*
X11289Y10670D01*
X11229Y10711D01*
Y11169D01*
X11379Y11206D01*
X11455Y11092D01*
X11604Y10992D01*
X11780Y10957D01*
X11927Y10987D01*
X12077Y10907D01*
Y8968D01*
X12060Y8942D01*
X12016Y8933D01*
X11868Y8833D01*
X11768Y8685D01*
X11733Y8509D01*
X11768Y8333D01*
X11775Y8323D01*
X11695Y8173D01*
X11155D01*
X10492Y8836D01*
X10508Y8918D01*
X10474Y9094D01*
X10374Y9242D01*
X10225Y9342D01*
X10050Y9377D01*
X9874Y9342D01*
X9725Y9242D01*
X9626Y9094D01*
X9591Y8918D01*
X9626Y8742D01*
X9725Y8594D01*
X9874Y8494D01*
X9985Y8472D01*
X10013Y8435D01*
X10016Y8427D01*
X9978Y8245D01*
X9908Y8198D01*
X9809Y8050D01*
X9774Y7874D01*
X9809Y7698D01*
X9908Y7550D01*
X10057Y7450D01*
X10233Y7415D01*
X10254Y7419D01*
X10372Y7302D01*
X10454Y7247D01*
X10552Y7227D01*
X13705D01*
X13803Y7247D01*
X13885Y7302D01*
X15881Y9298D01*
X15936Y9380D01*
X15956Y9478D01*
Y14888D01*
X16025Y14934D01*
X16125Y15083D01*
X16160Y15258D01*
X16125Y15434D01*
X16025Y15583D01*
X15876Y15682D01*
X15701Y15717D01*
X15525Y15682D01*
X15376Y15583D01*
X15277Y15434D01*
X15242Y15258D01*
X15277Y15083D01*
X15376Y14934D01*
X15446Y14888D01*
Y9583D01*
X13599Y7737D01*
X12934D01*
X12872Y7887D01*
X12965Y7980D01*
X13020Y8063D01*
X13039Y8160D01*
Y8696D01*
X13189Y8742D01*
X13194Y8735D01*
X13343Y8635D01*
X13519Y8600D01*
X13694Y8635D01*
X13843Y8735D01*
X13943Y8883D01*
X13978Y9059D01*
X13943Y9235D01*
X13942Y9236D01*
X14991Y10285D01*
X15047Y10368D01*
X15066Y10465D01*
Y17520D01*
X15125Y17558D01*
X15216Y17586D01*
X15341Y17502D01*
X15516Y17467D01*
X15692Y17502D01*
X15841Y17602D01*
X15940Y17750D01*
X15975Y17926D01*
X15940Y18102D01*
X15841Y18250D01*
X15803Y18276D01*
Y19028D01*
X15905Y19095D01*
X16004Y19244D01*
X16039Y19420D01*
X16004Y19595D01*
X15905Y19744D01*
X15756Y19844D01*
X15580Y19879D01*
X15405Y19844D01*
X15256Y19744D01*
X15216Y19685D01*
X15066Y19730D01*
Y20042D01*
X16595D01*
X16653Y19903D01*
X16408Y19659D01*
X16353Y19576D01*
X16333Y19478D01*
Y8566D01*
X14760Y6993D01*
X8608D01*
X6986Y8615D01*
Y9808D01*
X7136Y9853D01*
X7136Y9853D01*
X7285Y9753D01*
X7461Y9718D01*
X7636Y9753D01*
X7785Y9853D01*
X7885Y10002D01*
X7919Y10177D01*
X7911Y10218D01*
X8050Y10357D01*
X8105Y10439D01*
X8125Y10537D01*
Y10593D01*
X8159Y10676D01*
Y11676D01*
X8125Y11759D01*
Y12244D01*
X8159Y12327D01*
Y13327D01*
X8121Y13420D01*
Y13895D01*
X8155Y13978D01*
Y14978D01*
X8108Y15093D01*
X7993Y15140D01*
X7208D01*
X7093Y15093D01*
X6958Y15140D01*
X6596D01*
X6481Y15093D01*
X6434Y14978D01*
Y14651D01*
X6399Y14478D01*
X6434Y14305D01*
Y13978D01*
X6481Y13863D01*
X6596Y13816D01*
X6958D01*
X7093Y13863D01*
X7208Y13816D01*
X7611D01*
Y13489D01*
X7212D01*
X7097Y13442D01*
X6962Y13489D01*
X6600D01*
X6485Y13442D01*
X6438Y13327D01*
Y13082D01*
X5059D01*
X3965Y14175D01*
Y20514D01*
X3946Y20611D01*
X3891Y20694D01*
X2814Y21770D01*
X2732Y21825D01*
X2634Y21845D01*
X2195D01*
Y22515D01*
X345D01*
Y20665D01*
X2195D01*
Y21335D01*
X2528D01*
X3455Y20408D01*
Y14070D01*
X3475Y13972D01*
X3530Y13889D01*
X4773Y12647D01*
X4855Y12592D01*
X4953Y12572D01*
X6438D01*
Y12327D01*
X6485Y12212D01*
X6600Y12165D01*
X6962D01*
X7097Y12212D01*
X7212Y12165D01*
X7615D01*
Y11838D01*
X7212D01*
X7097Y11791D01*
X7080Y11787D01*
X7077Y11791D01*
X6962Y11838D01*
X6600D01*
X6485Y11791D01*
X6438Y11676D01*
Y10676D01*
X6476Y10583D01*
Y8509D01*
X6496Y8411D01*
X6551Y8329D01*
X8322Y6557D01*
X8405Y6502D01*
X8502Y6483D01*
X14866D01*
X14963Y6502D01*
X15046Y6557D01*
X16768Y8280D01*
X16823Y8362D01*
X16843Y8460D01*
Y19373D01*
X17191Y19721D01*
X17307Y19625D01*
X17291Y19600D01*
X17271Y19502D01*
Y11049D01*
X17291Y10951D01*
X17346Y10869D01*
X19505Y8710D01*
X19587Y8655D01*
X19685Y8635D01*
X23234D01*
X23322Y8424D01*
X23470Y8230D01*
X23664Y8082D01*
X23889Y7989D01*
X24130Y7957D01*
X24371Y7989D01*
X24596Y8082D01*
X24790Y8230D01*
X24938Y8424D01*
X25031Y8649D01*
X25063Y8890D01*
X25031Y9131D01*
X24938Y9356D01*
X24790Y9550D01*
X24596Y9698D01*
X24371Y9791D01*
X24130Y9823D01*
X23889Y9791D01*
X23664Y9698D01*
X23470Y9550D01*
X23322Y9356D01*
X23234Y9145D01*
X19791D01*
X17781Y11155D01*
Y19397D01*
X17897Y19513D01*
X18061Y19546D01*
X18210Y19645D01*
X18221Y19663D01*
X18371Y19617D01*
Y12870D01*
X18390Y12772D01*
X18446Y12690D01*
X19886Y11250D01*
X19968Y11195D01*
X20066Y11175D01*
X23234D01*
X23322Y10964D01*
X23470Y10770D01*
X23664Y10622D01*
X23889Y10529D01*
X24130Y10497D01*
X24371Y10529D01*
X24596Y10622D01*
X24790Y10770D01*
X24938Y10964D01*
X25031Y11189D01*
X25063Y11430D01*
X25031Y11671D01*
X24938Y11896D01*
X24790Y12090D01*
X24596Y12238D01*
X24371Y12331D01*
X24130Y12363D01*
X23889Y12331D01*
X23664Y12238D01*
X23470Y12090D01*
X23322Y11896D01*
X23234Y11685D01*
X20172D01*
X18881Y12976D01*
Y20248D01*
X18979Y20396D01*
X19014Y20572D01*
X18979Y20747D01*
X18880Y20896D01*
X18731Y20995D01*
X18686Y21004D01*
X18637Y21167D01*
X18805Y21335D01*
X23205D01*
Y20665D01*
X25055D01*
Y22515D01*
X23205D01*
Y21845D01*
X18700D01*
X18602Y21825D01*
X18519Y21770D01*
X17237Y20488D01*
X17098Y20545D01*
Y21102D01*
X16379D01*
Y21312D01*
X17098D01*
Y22372D01*
X16379D01*
Y22582D01*
X17098D01*
Y22806D01*
X17969D01*
X18178Y22598D01*
X18277Y22531D01*
X18394Y22508D01*
X18394Y22508D01*
X21421D01*
X21425Y22495D01*
X21485Y22432D01*
X21496Y22419D01*
X21517Y22391D01*
X21522Y22384D01*
X21524Y22380D01*
X21525Y22377D01*
X21526Y22375D01*
X21527Y22373D01*
X21533Y22367D01*
X21539Y22360D01*
X21546Y22325D01*
X21646Y22176D01*
X21795Y22077D01*
X21970Y22042D01*
X22146Y22077D01*
X22295Y22176D01*
X22394Y22325D01*
X22429Y22501D01*
X22394Y22676D01*
X22295Y22825D01*
X22146Y22924D01*
X21970Y22959D01*
X21890Y22943D01*
X21882Y22945D01*
X21878Y22947D01*
X21874Y22948D01*
X21871Y22949D01*
X21869Y22949D01*
X21868Y22949D01*
X21861Y22953D01*
X21853Y22959D01*
X21820Y22985D01*
X21801Y23003D01*
X21786Y23009D01*
X21765Y23030D01*
X21666Y23096D01*
X21549Y23120D01*
X21549Y23120D01*
X18521D01*
X18402Y23239D01*
Y34341D01*
X18596D01*
Y37541D01*
X18378D01*
X18234Y37574D01*
X18210Y37691D01*
X18144Y37790D01*
X17904Y38030D01*
X17899Y38044D01*
X17860Y38086D01*
X17849Y38100D01*
X17839Y38113D01*
X17832Y38124D01*
X17828Y38133D01*
X17826Y38138D01*
X17825Y38139D01*
X17825Y38145D01*
X17824Y38148D01*
X17823Y38149D01*
X17823Y38150D01*
X17817Y38161D01*
X17787Y38314D01*
X17687Y38463D01*
X17538Y38562D01*
X17363Y38597D01*
D02*
G37*
G36*
X24130Y19983D02*
X23889Y19951D01*
X23664Y19858D01*
X23470Y19710D01*
X23322Y19516D01*
X23229Y19291D01*
X23197Y19050D01*
X23229Y18809D01*
X23322Y18584D01*
X23470Y18390D01*
X23664Y18242D01*
X23889Y18149D01*
X24130Y18117D01*
X24371Y18149D01*
X24596Y18242D01*
X24790Y18390D01*
X24938Y18584D01*
X25031Y18809D01*
X25063Y19050D01*
X25031Y19291D01*
X24938Y19516D01*
X24790Y19710D01*
X24596Y19858D01*
X24371Y19951D01*
X24130Y19983D01*
D02*
G37*
G36*
X1270D02*
X1029Y19951D01*
X804Y19858D01*
X610Y19710D01*
X462Y19516D01*
X369Y19291D01*
X337Y19050D01*
X369Y18809D01*
X462Y18584D01*
X610Y18390D01*
X804Y18242D01*
X1029Y18149D01*
X1270Y18117D01*
X1511Y18149D01*
X1736Y18242D01*
X1930Y18390D01*
X2078Y18584D01*
X2171Y18809D01*
X2203Y19050D01*
X2171Y19291D01*
X2078Y19516D01*
X1930Y19710D01*
X1736Y19858D01*
X1511Y19951D01*
X1270Y19983D01*
D02*
G37*
G36*
X24130Y17443D02*
X23889Y17411D01*
X23664Y17318D01*
X23470Y17170D01*
X23322Y16976D01*
X23229Y16751D01*
X23197Y16510D01*
X23229Y16269D01*
X23322Y16044D01*
X23470Y15850D01*
X23664Y15702D01*
X23889Y15609D01*
X24130Y15577D01*
X24371Y15609D01*
X24596Y15702D01*
X24790Y15850D01*
X24938Y16044D01*
X25031Y16269D01*
X25063Y16510D01*
X25031Y16751D01*
X24938Y16976D01*
X24790Y17170D01*
X24596Y17318D01*
X24371Y17411D01*
X24130Y17443D01*
D02*
G37*
G36*
X1270D02*
X1029Y17411D01*
X804Y17318D01*
X610Y17170D01*
X462Y16976D01*
X369Y16751D01*
X337Y16510D01*
X369Y16269D01*
X462Y16044D01*
X610Y15850D01*
X804Y15702D01*
X1029Y15609D01*
X1270Y15577D01*
X1511Y15609D01*
X1736Y15702D01*
X1930Y15850D01*
X2078Y16044D01*
X2171Y16269D01*
X2203Y16510D01*
X2171Y16751D01*
X2078Y16976D01*
X1930Y17170D01*
X1736Y17318D01*
X1511Y17411D01*
X1270Y17443D01*
D02*
G37*
G36*
X24130Y14903D02*
X23889Y14871D01*
X23664Y14778D01*
X23470Y14630D01*
X23322Y14436D01*
X23229Y14211D01*
X23197Y13970D01*
X23229Y13729D01*
X23322Y13504D01*
X23470Y13310D01*
X23664Y13162D01*
X23889Y13069D01*
X24130Y13037D01*
X24371Y13069D01*
X24596Y13162D01*
X24790Y13310D01*
X24938Y13504D01*
X25031Y13729D01*
X25063Y13970D01*
X25031Y14211D01*
X24938Y14436D01*
X24790Y14630D01*
X24596Y14778D01*
X24371Y14871D01*
X24130Y14903D01*
D02*
G37*
G36*
X1270D02*
X1029Y14871D01*
X804Y14778D01*
X610Y14630D01*
X462Y14436D01*
X369Y14211D01*
X337Y13970D01*
X369Y13729D01*
X462Y13504D01*
X610Y13310D01*
X804Y13162D01*
X1029Y13069D01*
X1270Y13037D01*
X1511Y13069D01*
X1736Y13162D01*
X1930Y13310D01*
X2078Y13504D01*
X2171Y13729D01*
X2203Y13970D01*
X2171Y14211D01*
X2078Y14436D01*
X1930Y14630D01*
X1736Y14778D01*
X1511Y14871D01*
X1270Y14903D01*
D02*
G37*
G36*
Y12363D02*
X1029Y12331D01*
X804Y12238D01*
X610Y12090D01*
X462Y11896D01*
X369Y11671D01*
X337Y11430D01*
X369Y11189D01*
X462Y10964D01*
X610Y10770D01*
X804Y10622D01*
X1029Y10529D01*
X1270Y10497D01*
X1511Y10529D01*
X1736Y10622D01*
X1930Y10770D01*
X2078Y10964D01*
X2171Y11189D01*
X2203Y11430D01*
X2171Y11671D01*
X2078Y11896D01*
X1930Y12090D01*
X1736Y12238D01*
X1511Y12331D01*
X1270Y12363D01*
D02*
G37*
G36*
Y9823D02*
X1029Y9791D01*
X804Y9698D01*
X610Y9550D01*
X462Y9356D01*
X369Y9131D01*
X337Y8890D01*
X369Y8649D01*
X462Y8424D01*
X610Y8230D01*
X804Y8082D01*
X1029Y7989D01*
X1270Y7957D01*
X1511Y7989D01*
X1736Y8082D01*
X1930Y8230D01*
X2078Y8424D01*
X2171Y8649D01*
X2203Y8890D01*
X2171Y9131D01*
X2078Y9356D01*
X1930Y9550D01*
X1736Y9698D01*
X1511Y9791D01*
X1270Y9823D01*
D02*
G37*
G36*
X24130Y7283D02*
X23889Y7251D01*
X23664Y7158D01*
X23470Y7010D01*
X23322Y6816D01*
X23229Y6591D01*
X23197Y6350D01*
X23229Y6109D01*
X23322Y5884D01*
X23470Y5690D01*
X23664Y5542D01*
X23889Y5449D01*
X24130Y5417D01*
X24371Y5449D01*
X24596Y5542D01*
X24790Y5690D01*
X24938Y5884D01*
X25031Y6109D01*
X25063Y6350D01*
X25031Y6591D01*
X24938Y6816D01*
X24790Y7010D01*
X24596Y7158D01*
X24371Y7251D01*
X24130Y7283D01*
D02*
G37*
G36*
X1270D02*
X1029Y7251D01*
X804Y7158D01*
X610Y7010D01*
X462Y6816D01*
X369Y6591D01*
X337Y6350D01*
X369Y6109D01*
X462Y5884D01*
X610Y5690D01*
X804Y5542D01*
X1029Y5449D01*
X1270Y5417D01*
X1511Y5449D01*
X1736Y5542D01*
X1930Y5690D01*
X2078Y5884D01*
X2171Y6109D01*
X2203Y6350D01*
X2171Y6591D01*
X2078Y6816D01*
X1930Y7010D01*
X1736Y7158D01*
X1511Y7251D01*
X1270Y7283D01*
D02*
G37*
G36*
X24280Y4875D02*
Y3960D01*
X25195D01*
X25177Y4091D01*
X25069Y4352D01*
X24897Y4577D01*
X24672Y4749D01*
X24411Y4857D01*
X24280Y4875D01*
D02*
G37*
G36*
X1420D02*
Y3960D01*
X2335D01*
X2317Y4091D01*
X2209Y4352D01*
X2037Y4577D01*
X1812Y4749D01*
X1551Y4857D01*
X1420Y4875D01*
D02*
G37*
G36*
X23980D02*
X23849Y4857D01*
X23588Y4749D01*
X23363Y4577D01*
X23191Y4352D01*
X23083Y4091D01*
X23065Y3960D01*
X23980D01*
Y4875D01*
D02*
G37*
G36*
X1120D02*
X989Y4857D01*
X728Y4749D01*
X503Y4577D01*
X331Y4352D01*
X223Y4091D01*
X205Y3960D01*
X1120D01*
Y4875D01*
D02*
G37*
G36*
X25195Y3660D02*
X24280D01*
Y2745D01*
X24411Y2763D01*
X24672Y2871D01*
X24897Y3043D01*
X25069Y3268D01*
X25177Y3529D01*
X25195Y3660D01*
D02*
G37*
G36*
X2335D02*
X1420D01*
Y2745D01*
X1551Y2763D01*
X1812Y2871D01*
X2037Y3043D01*
X2209Y3268D01*
X2317Y3529D01*
X2335Y3660D01*
D02*
G37*
G36*
X23980D02*
X23065D01*
X23083Y3529D01*
X23191Y3268D01*
X23363Y3043D01*
X23588Y2871D01*
X23849Y2763D01*
X23980Y2745D01*
Y3660D01*
D02*
G37*
G36*
X1120D02*
X205D01*
X223Y3529D01*
X331Y3268D01*
X503Y3043D01*
X728Y2871D01*
X989Y2763D01*
X1120Y2745D01*
Y3660D01*
D02*
G37*
%LPD*%
G36*
X17664Y38118D02*
X17667Y38101D01*
X17673Y38082D01*
X17681Y38063D01*
X17692Y38043D01*
X17705Y38023D01*
X17720Y38001D01*
X17738Y37979D01*
X17780Y37934D01*
X17568Y37722D01*
X17545Y37744D01*
X17500Y37782D01*
X17479Y37797D01*
X17458Y37810D01*
X17439Y37820D01*
X17419Y37828D01*
X17401Y37834D01*
X17383Y37838D01*
X17366Y37839D01*
X17663Y38136D01*
X17664Y38118D01*
D02*
G37*
G36*
X6491Y27465D02*
X6478Y27473D01*
X6463Y27481D01*
X6446Y27488D01*
X6426Y27493D01*
X6404Y27498D01*
X6381Y27502D01*
X6326Y27507D01*
X6296Y27509D01*
X6263Y27509D01*
X6209Y27809D01*
X6241Y27810D01*
X6298Y27816D01*
X6323Y27820D01*
X6346Y27827D01*
X6367Y27835D01*
X6385Y27844D01*
X6401Y27854D01*
X6415Y27866D01*
X6426Y27880D01*
X6491Y27465D01*
D02*
G37*
G36*
X6971Y27686D02*
X6975Y27668D01*
X6980Y27649D01*
X6988Y27630D01*
X6999Y27610D01*
X7012Y27590D01*
X7027Y27568D01*
X7045Y27547D01*
X7087Y27501D01*
X6875Y27289D01*
X6852Y27311D01*
X6807Y27349D01*
X6786Y27364D01*
X6766Y27377D01*
X6746Y27387D01*
X6727Y27395D01*
X6708Y27401D01*
X6690Y27405D01*
X6673Y27406D01*
X6970Y27703D01*
X6971Y27686D01*
D02*
G37*
G36*
X7955Y24780D02*
X7956Y24746D01*
X7964Y24621D01*
X7966Y24605D01*
X7970Y24592D01*
X7974Y24583D01*
X7978Y24576D01*
X7607Y24648D01*
X7616Y24654D01*
X7625Y24664D01*
X7632Y24676D01*
X7638Y24691D01*
X7643Y24709D01*
X7648Y24729D01*
X7651Y24752D01*
X7655Y24808D01*
X7655Y24839D01*
X7955Y24780D01*
D02*
G37*
G36*
X21712Y22863D02*
X21757Y22827D01*
X21778Y22813D01*
X21799Y22802D01*
X21819Y22794D01*
X21838Y22789D01*
X21856Y22786D01*
X21874Y22787D01*
X21891Y22790D01*
X21679Y22427D01*
X21675Y22439D01*
X21669Y22453D01*
X21661Y22468D01*
X21650Y22484D01*
X21623Y22520D01*
X21607Y22540D01*
X21544Y22607D01*
X21689Y22885D01*
X21712Y22863D01*
D02*
G37*
G36*
X8587Y16263D02*
X8574Y16274D01*
X8559Y16284D01*
X8542Y16293D01*
X8522Y16301D01*
X8501Y16308D01*
X8477Y16313D01*
X8451Y16317D01*
X8423Y16320D01*
X8361Y16323D01*
Y16623D01*
X8393Y16623D01*
X8451Y16628D01*
X8477Y16632D01*
X8501Y16638D01*
X8522Y16644D01*
X8542Y16652D01*
X8559Y16661D01*
X8574Y16671D01*
X8587Y16683D01*
Y16263D01*
D02*
G37*
G36*
X7993Y13978D02*
X7208D01*
X7708Y14478D01*
X7208Y14978D01*
X7993D01*
Y13978D01*
D02*
G37*
G36*
X7458Y14478D02*
X6958Y13978D01*
X6596D01*
Y14978D01*
X6958D01*
X7458Y14478D01*
D02*
G37*
G36*
X7997Y12327D02*
X7212D01*
X7712Y12827D01*
X7212Y13327D01*
X7997D01*
Y12327D01*
D02*
G37*
G36*
X7462Y12827D02*
X6962Y12327D01*
X6600D01*
Y13327D01*
X6962D01*
X7462Y12827D01*
D02*
G37*
G36*
X7997Y10676D02*
X7212D01*
X7712Y11176D01*
X7212Y11676D01*
X7997D01*
Y10676D01*
D02*
G37*
G36*
X7462Y11176D02*
X6962Y10676D01*
X6600D01*
Y11676D01*
X6962D01*
X7462Y11176D01*
D02*
G37*
D10*
X5969Y30123D02*
X6230Y29862D01*
X11650Y11733D02*
X11703Y11680D01*
X18556Y20572D02*
X18626Y20501D01*
X10541Y30123D02*
X10841Y29823D01*
X6976Y20100D02*
X7404Y20529D01*
X12784Y11006D02*
X13467Y11689D01*
X6731Y8509D02*
X8502Y6738D01*
X10414Y7620D02*
Y7639D01*
X7866Y12981D02*
X7870Y12985D01*
X7465Y23112D02*
X9073D01*
X7493Y10160D02*
X7870Y10537D01*
X12269Y8804D02*
X12332Y8868D01*
X13467Y30001D02*
X13589Y30123D01*
X14811Y10465D02*
Y28097D01*
X13589Y35934D02*
X13596Y35941D01*
X13519Y9059D02*
Y9167D01*
X15096Y35941D02*
X15113Y35924D01*
X14815Y29536D02*
Y29825D01*
X5629Y20563D02*
X6092Y20100D01*
X16588Y8460D02*
Y19478D01*
X10541Y35886D02*
X10596Y35941D01*
X15113Y31623D02*
Y35924D01*
X5629Y23515D02*
X7539Y25425D01*
X6972Y23604D02*
X7465Y23112D01*
X10307Y9938D02*
Y25483D01*
X13635Y10792D02*
X14132Y11288D01*
X12065Y30123D02*
X12157Y30031D01*
Y29195D02*
Y30031D01*
X6230Y29560D02*
X10307Y25483D01*
X13589Y31623D02*
Y35934D01*
X2634Y21590D02*
X3710Y20514D01*
X13686Y9335D02*
Y9340D01*
X9073Y20222D02*
Y20572D01*
X6092Y20100D02*
X6976D01*
X7596Y37041D02*
X7846Y37291D01*
X12707Y12266D02*
X12882Y12091D01*
X18700Y21590D02*
X24130D01*
X5629Y20563D02*
Y23515D01*
X1270Y21590D02*
X2634D01*
X10665Y9581D02*
X11319D01*
X6731Y8509D02*
Y10922D01*
X6527Y21109D02*
Y21138D01*
X17526Y11049D02*
Y19502D01*
X7770Y29576D02*
X10974Y26372D01*
X6230Y29560D02*
Y29862D01*
X13519Y9167D02*
X13686Y9335D01*
X10287Y7766D02*
Y7874D01*
X5969Y35814D02*
X6096Y35941D01*
X12157Y29195D02*
X12707Y28645D01*
X18626Y12870D02*
Y20501D01*
X7539Y25425D02*
X7543D01*
X14132Y28853D02*
X14815Y29536D01*
X15516Y17926D02*
X15548Y17958D01*
X9317Y29643D02*
X11650Y27311D01*
X12065Y31623D02*
Y35910D01*
X7493Y35838D02*
X7596Y35941D01*
X15548Y19388D02*
X15580Y19420D01*
X7231Y21842D02*
X9073D01*
X11650Y11733D02*
Y27311D01*
X13686Y9340D02*
X14811Y10465D01*
X14815Y29825D02*
X15113Y30123D01*
X6527Y21138D02*
X7231Y21842D01*
X9317Y29643D02*
Y29823D01*
X10414Y7620D02*
X10552Y7482D01*
X9017Y31623D02*
Y35862D01*
X13705Y7482D02*
X15701Y9478D01*
X11421Y29285D02*
X12332Y28374D01*
X16637Y31623D02*
Y35900D01*
X13569Y10792D02*
X13635D01*
X17885Y19862D02*
Y19970D01*
X10552Y7482D02*
X13705D01*
X12707Y12266D02*
Y28645D01*
X7870Y10537D02*
Y11173D01*
X11050Y7918D02*
X12542D01*
X5969Y31623D02*
Y35814D01*
X12269Y8586D02*
Y8804D01*
X19685Y8890D02*
X24130D01*
X7870Y12827D02*
Y12985D01*
X16596Y35941D02*
X16637Y35900D01*
X17526Y19502D02*
X17885Y19862D01*
X20066Y11430D02*
X24130D01*
X10541Y31623D02*
Y35886D01*
X10287Y7766D02*
X10414Y7639D01*
X12784Y8160D02*
Y11006D01*
X10050Y8918D02*
X11050Y7918D01*
X16337Y29823D02*
X16637Y30123D01*
X16337Y29623D02*
Y29823D01*
X7770Y29576D02*
Y29846D01*
X9017Y35862D02*
X9096Y35941D01*
X12332Y8868D02*
Y28374D01*
X12542Y7918D02*
X12784Y8160D01*
X11703Y11493D02*
Y11680D01*
X15548Y17958D02*
Y19388D01*
X11421Y29285D02*
X11421D01*
X7870Y11176D02*
Y12827D01*
X14132Y11288D02*
Y28853D01*
X18626Y12870D02*
X20066Y11430D01*
X12882Y11982D02*
Y12091D01*
X11319Y9581D02*
X11383Y9645D01*
X10883Y29823D02*
X11421Y29285D01*
X15701Y9478D02*
Y15258D01*
X17526Y11049D02*
X19685Y8890D01*
X12192Y8509D02*
X12269Y8586D01*
X13467Y11689D02*
Y30001D01*
X14811Y28097D02*
X16337Y29623D01*
X12065Y35910D02*
X12096Y35941D01*
X8502Y6738D02*
X14866D01*
X7493Y31623D02*
Y35838D01*
X11703Y11493D02*
X11780Y11416D01*
X4953Y12827D02*
X6862D01*
X10974Y10355D02*
Y26372D01*
X3710Y14070D02*
X4953Y12827D01*
X10307Y9938D02*
X10665Y9581D01*
X10841Y29823D02*
X10883D01*
X14866Y6738D02*
X16588Y8460D01*
Y19478D02*
X18700Y21590D01*
X7493Y30123D02*
X7770Y29846D01*
X9041Y20190D02*
X9073Y20222D01*
X9017Y30123D02*
X9317Y29823D01*
X7596Y35941D02*
Y37041D01*
X7866Y12981D02*
Y14478D01*
X3710Y14070D02*
Y20514D01*
D11*
X13684Y-1D02*
G03*
X13684Y-1999I50J-999D01*
G01*
X15335Y44925D02*
G03*
X15335Y42927I50J-999D01*
G01*
X25401Y28892D02*
G03*
X27399Y28892I999J50D01*
G01*
X-1999D02*
G03*
X-1Y28892I999J50D01*
G01*
Y23892D02*
G03*
X-1999Y23892I-999J-50D01*
G01*
X10335Y42927D02*
G03*
X10335Y44925I-50J999D01*
G01*
X8684Y-1999D02*
G03*
X8684Y-1I-50J999D01*
G01*
X27399Y23892D02*
G03*
X25401Y23892I-999J-50D01*
G01*
D14*
X2288Y42928D02*
G03*
X0Y40640I0J-2288D01*
G01*
X25400D02*
G03*
X23112Y42928I-2288J0D01*
G01*
X2288D02*
X23112D01*
X-7301Y-7301D02*
X32704D01*
X25400Y40640D02*
X25400Y2540D01*
X-7302Y0D02*
Y50227D01*
X0Y0D02*
Y40640D01*
X-1999Y44925D02*
X10335D01*
X-1999Y-1999D02*
Y23892D01*
X22860Y0D02*
X25400Y2540D01*
X32704Y-7301D02*
Y50227D01*
X0Y0D02*
X22860D01*
X-7302Y50227D02*
X32704D01*
X15335Y44925D02*
X27399D01*
Y-1999D02*
Y23892D01*
X-1999Y28892D02*
Y44925D01*
X-7302Y0D02*
X-7301D01*
Y-7301D02*
Y0D01*
X13684Y-1999D02*
X27399D01*
Y28892D02*
Y44925D01*
X-1999Y-1999D02*
X8684D01*
D16*
X10541Y30123D02*
D03*
Y31623D02*
D03*
X13589D02*
D03*
Y30123D02*
D03*
X5969D02*
D03*
Y31623D02*
D03*
X16637Y30123D02*
D03*
Y31623D02*
D03*
X12065Y30123D02*
D03*
Y31623D02*
D03*
X7493Y30123D02*
D03*
Y31623D02*
D03*
X15113Y30123D02*
D03*
Y31623D02*
D03*
X9017Y30123D02*
D03*
Y31623D02*
D03*
D21*
X16596Y35941D02*
D03*
X15096D02*
D03*
X13596D02*
D03*
X12096D02*
D03*
X10596D02*
D03*
X9096D02*
D03*
X7596D02*
D03*
X6096D02*
D03*
X18096D02*
D03*
X19596D02*
D03*
D22*
X21546Y39741D02*
D03*
X4146D02*
D03*
D34*
X18096Y23112D02*
Y35941D01*
X7805Y24839D02*
X8143Y25177D01*
X5658Y27659D02*
X6624D01*
X6006Y16473D02*
X8801D01*
X6670Y27706D02*
X8143Y26233D01*
X17928Y36109D02*
Y37574D01*
X16073Y21842D02*
Y23112D01*
X4782Y17697D02*
X6006Y16473D01*
X4782Y17697D02*
Y26784D01*
X21549Y22814D02*
X21862Y22501D01*
X8143Y25177D02*
Y26233D01*
X6624Y27659D02*
X6670Y27706D01*
X7748Y24383D02*
X7805Y24440D01*
X4782Y26784D02*
X5658Y27659D01*
X21862Y22501D02*
X21970D01*
X17363Y38139D02*
X17928Y37574D01*
X18394Y22814D02*
X21549D01*
X16073Y20572D02*
Y21842D01*
X17928Y36109D02*
X18096Y35941D01*
Y23112D02*
X18394Y22814D01*
X7805Y24440D02*
Y24839D01*
X16073Y23112D02*
X18096D01*
D35*
X1270Y6350D02*
D03*
Y19050D02*
D03*
Y3810D02*
D03*
Y13970D02*
D03*
Y11430D02*
D03*
Y16510D02*
D03*
Y8890D02*
D03*
X24130D02*
D03*
Y3810D02*
D03*
Y11430D02*
D03*
Y19050D02*
D03*
Y13970D02*
D03*
Y16510D02*
D03*
Y6350D02*
D03*
D36*
X1270Y21590D02*
D03*
X24130D02*
D03*
D37*
X30226Y47752D02*
D03*
X-4826Y40386D02*
D03*
X30176Y-4813D02*
D03*
X-4758Y-4762D02*
D03*
D38*
X24130Y29210D02*
D03*
X17363Y38139D02*
D03*
X8743Y26164D02*
D03*
X7543Y25425D02*
D03*
X11780Y11416D02*
D03*
X15516Y17926D02*
D03*
X12882Y11982D02*
D03*
X15950Y28326D02*
D03*
X18385Y11322D02*
D03*
X18556Y20572D02*
D03*
X17885Y19970D02*
D03*
X9946Y28177D02*
D03*
X8505Y28063D02*
D03*
X11344Y28542D02*
D03*
X18076Y14605D02*
D03*
X20940Y13175D02*
D03*
X22210Y14953D02*
D03*
X21362Y10043D02*
D03*
X4637Y5023D02*
D03*
X3871Y7584D02*
D03*
X5452Y8623D02*
D03*
X4152Y12166D02*
D03*
X9625Y18460D02*
D03*
X6858Y14478D02*
D03*
X13519Y9059D02*
D03*
X15580Y19420D02*
D03*
X7404Y20529D02*
D03*
X6527Y21109D02*
D03*
X6972Y23604D02*
D03*
X9041Y20190D02*
D03*
X21970Y22501D02*
D03*
X6670Y27706D02*
D03*
X15701Y15258D02*
D03*
X14300Y2057D02*
D03*
X24790Y41021D02*
D03*
Y35027D02*
D03*
X8306Y2057D02*
D03*
X21793Y29032D02*
D03*
X18796Y5055D02*
D03*
Y29032D02*
D03*
X20295Y2057D02*
D03*
X23292D02*
D03*
X15799Y41021D02*
D03*
X18796D02*
D03*
X15799Y5055D02*
D03*
X20295Y8052D02*
D03*
X3810Y23038D02*
D03*
X11303Y2057D02*
D03*
X5309D02*
D03*
X2311Y38024D02*
D03*
Y32029D02*
D03*
X9804Y5055D02*
D03*
X17297Y8052D02*
D03*
X22606Y19812D02*
D03*
X17297Y2057D02*
D03*
X23292Y38024D02*
D03*
X5309D02*
D03*
X21793Y5055D02*
D03*
X23292Y32029D02*
D03*
X6807Y41021D02*
D03*
X2311Y2057D02*
D03*
X12802Y5055D02*
D03*
X3810Y35027D02*
D03*
X20295Y26035D02*
D03*
Y38024D02*
D03*
X21793Y35027D02*
D03*
X2311Y26035D02*
D03*
X12802Y41021D02*
D03*
X3810Y29032D02*
D03*
X9804Y41021D02*
D03*
X24790Y23038D02*
D03*
X23292Y26035D02*
D03*
X24790Y5055D02*
D03*
X6807D02*
D03*
X11383Y9645D02*
D03*
X10050Y8918D02*
D03*
X8801Y16473D02*
D03*
X7748Y24383D02*
D03*
X7461Y10177D02*
D03*
X10233Y7874D02*
D03*
X12192Y8509D02*
D03*
X10965Y10346D02*
D03*
X13569Y10792D02*
D03*
D39*
X9073Y24382D02*
D03*
Y23112D02*
D03*
Y21842D02*
D03*
Y20572D02*
D03*
X16073Y24382D02*
D03*
Y20572D02*
D03*
Y21842D02*
D03*
Y23112D02*
D03*
D40*
X6862Y12827D02*
D03*
X7870D02*
D03*
X6862Y11176D02*
D03*
X7870D02*
D03*
X6858Y14478D02*
D03*
X7866D02*
D03*
M02*
