G04*
G04 #@! TF.GenerationSoftware,Altium Limited,Altium Designer,26.6.0 (10)*
G04*
G04 Layer_Color=8421504*
G04 Board_Origin=30950000|19250000*
%FSLAX43Y43*%
%MOMM*%
G71*
G04*
G04 #@! TF.SameCoordinates,0535685A-DFC4-4527-B4F2-3BE9C4C73D04*
G04*
G04*
G04 #@! TF.FilePolarity,Positive*
G04*
G01*
G75*
%ADD10C,0.250*%
%ADD14C,0.254*%
G04:AMPARAMS|DCode=16|XSize=0.45mm|YSize=1.4mm|CornerRadius=0.05mm|HoleSize=0mm|Usage=FLASHONLY|Rotation=90.000|XOffset=0mm|YOffset=0mm|HoleType=Round|Shape=RoundedRectangle|*
%AMROUNDEDRECTD16*
21,1,0.450,1.301,0,0,90.0*
21,1,0.351,1.400,0,0,90.0*
1,1,0.099,0.651,0.176*
1,1,0.099,0.651,-0.176*
1,1,0.099,-0.651,-0.176*
1,1,0.099,-0.651,0.176*
%
%ADD16ROUNDEDRECTD16*%
G04:AMPARAMS|DCode=17|XSize=1.655mm|YSize=0.381mm|CornerRadius=0.19mm|HoleSize=0mm|Usage=FLASHONLY|Rotation=90.000|XOffset=0mm|YOffset=0mm|HoleType=Round|Shape=RoundedRectangle|*
%AMROUNDEDRECTD17*
21,1,1.655,0.000,0,0,90.0*
21,1,1.275,0.381,0,0,90.0*
1,1,0.381,0.000,0.637*
1,1,0.381,0.000,-0.637*
1,1,0.381,0.000,-0.637*
1,1,0.381,0.000,0.637*
%
%ADD17ROUNDEDRECTD17*%
%ADD18R,0.381X1.655*%
%ADD19O,0.300X1.700*%
%ADD20R,0.800X0.800*%
%ADD21R,0.800X0.800*%
%ADD22R,1.100X1.900*%
%ADD23R,0.700X2.900*%
D10*
X-1Y24000D02*
G03*
X-1999Y24000I-999J-50D01*
G01*
Y29000D02*
G03*
X-1Y29000I999J50D01*
G01*
X13684Y-1D02*
G03*
X13684Y-1999I50J-999D01*
G01*
X25401Y28892D02*
G03*
X27399Y28892I999J50D01*
G01*
X8684Y-1999D02*
G03*
X8684Y-1I-50J999D01*
G01*
X27399Y23892D02*
G03*
X25401Y23892I-999J-50D01*
G01*
D14*
X2288Y42928D02*
G03*
X0Y40640I0J-2288D01*
G01*
X25400D02*
G03*
X23112Y42928I-2288J0D01*
G01*
X27399Y43000D02*
X32704D01*
X27399Y37695D02*
Y43000D01*
Y28892D02*
Y37695D01*
X32704Y-7301D02*
Y43000D01*
X-1999Y37697D02*
Y43000D01*
X-7302D02*
X-1999D01*
X-7302Y0D02*
Y43000D01*
X2288Y42928D02*
X23112D01*
X-7301Y-7301D02*
X32704D01*
X25400Y40640D02*
X25400Y2540D01*
X0Y0D02*
Y40640D01*
X-1999Y-1999D02*
Y23892D01*
X22860Y0D02*
X25400Y2540D01*
X0Y0D02*
X22860D01*
X27399Y-1999D02*
Y23892D01*
X-1999Y28892D02*
Y37697D01*
X-7302Y0D02*
X-7301D01*
Y-7301D02*
Y0D01*
X13684Y-1999D02*
X27399D01*
X-1999D02*
X8684D01*
D16*
X14888Y8946D02*
D03*
Y9596D02*
D03*
Y10246D02*
D03*
Y10896D02*
D03*
Y11546D02*
D03*
Y6996D02*
D03*
X8988D02*
D03*
Y7646D02*
D03*
X14888Y8296D02*
D03*
X8988Y10246D02*
D03*
Y10896D02*
D03*
X14888Y7646D02*
D03*
X8988Y9596D02*
D03*
Y8946D02*
D03*
Y11546D02*
D03*
Y8296D02*
D03*
D17*
X11934Y22383D02*
D03*
X12584Y16733D02*
D03*
X13884D02*
D03*
X18434D02*
D03*
X14534D02*
D03*
X15184D02*
D03*
X11934D02*
D03*
X11284Y22383D02*
D03*
X13234Y16733D02*
D03*
Y22383D02*
D03*
X15834Y16733D02*
D03*
X16484D02*
D03*
X17134D02*
D03*
X17784D02*
D03*
X18434Y22383D02*
D03*
X17784D02*
D03*
X17134D02*
D03*
X16484D02*
D03*
X15834D02*
D03*
X15184D02*
D03*
X14534D02*
D03*
X13884D02*
D03*
X12584D02*
D03*
D18*
X11284Y16733D02*
D03*
D19*
X5985Y18143D02*
D03*
X6985Y22243D02*
D03*
X6485D02*
D03*
X5985D02*
D03*
X7985D02*
D03*
X6485Y18143D02*
D03*
X6985D02*
D03*
X7485D02*
D03*
X7985Y18143D02*
D03*
X7485Y22243D02*
D03*
D20*
X21454Y20973D02*
D03*
X19954D02*
D03*
X10426Y13208D02*
D03*
Y14605D02*
D03*
X19942Y19576D02*
D03*
X11926Y13208D02*
D03*
X21442Y19576D02*
D03*
X6023Y15961D02*
D03*
X7523D02*
D03*
X11926Y14605D02*
D03*
X21451Y18161D02*
D03*
X19951D02*
D03*
Y16764D02*
D03*
X21451D02*
D03*
D21*
X4445Y26150D02*
D03*
X4422Y19078D02*
D03*
X8763Y26162D02*
D03*
X20447Y24233D02*
D03*
X10160Y26138D02*
D03*
X5969Y26150D02*
D03*
X4445Y14502D02*
D03*
X5969Y24650D02*
D03*
X4445D02*
D03*
X19685Y31623D02*
D03*
Y30123D02*
D03*
X9017D02*
D03*
Y31623D02*
D03*
X15113Y30123D02*
D03*
Y31623D02*
D03*
X20447Y22733D02*
D03*
X4422Y17578D02*
D03*
X13589Y30123D02*
D03*
Y31623D02*
D03*
X10160Y24638D02*
D03*
X18161Y30123D02*
D03*
Y31623D02*
D03*
X12065Y30123D02*
D03*
Y31623D02*
D03*
X10541Y30123D02*
D03*
Y31623D02*
D03*
X16637Y30123D02*
D03*
Y31623D02*
D03*
X8763Y24662D02*
D03*
X4445Y16002D02*
D03*
D22*
X21546Y39741D02*
D03*
X4146D02*
D03*
D23*
X6096Y35941D02*
D03*
X7596D02*
D03*
X16596D02*
D03*
X10596D02*
D03*
X12096D02*
D03*
X13596D02*
D03*
X18096D02*
D03*
X15096D02*
D03*
X19596D02*
D03*
X9096D02*
D03*
M02*
