M48
;Layer_Color=9474304
;FILE_FORMAT=4:3
METRIC,LZ
;TYPE=PLATED
T01F00S00C0.300
T02F00S00C1.000
T03F00S00C1.100
T04F00S00C1.300
T05F00S00C3.700
%
T01
X0000776Y0001808
X0003316
X0005856
X0008396
X0010936
X0013476
X0016016
X0018556
X0017286Y0004348
X0015784Y0005596
X0018556Y0006888
Y0011968
X001945Y0011649
X0014746Y0009428
Y0014508
X0009666
X0007126
X0004586
X0002046
X0003316Y0017048
X0005856
X0008396
X0010936
X0012206Y0019588
X0020046Y0018033
X0008396Y0011968
X0009666Y0009428
X0010936Y0006888
X0008396
X0009666Y0004348
X0002046
X0003316Y0006888
X0000776
X0002046Y0009428
X0004586
X0003316Y0011968
X0000776
Y0017048
X0002046Y0019588
X0003316Y0022128
X0000776
X0002046Y0024668
X0004586
X0007126
X0009666
X0010936Y0027208
X0012206Y0029748
X0013476Y0032288
X0014746Y0034828
X0017286
X0019826
Y0029748
X0017286
X0017331Y0026011
X0016525Y0026006
X0016441Y0024171
X0017441
Y0023171
X0016941Y0023671
X0016441Y0023171
X0016623Y0021351
X0017267Y0021356
X0016946Y0020625
X0019113Y0023528
X0019789Y002326
X0020049Y0023965
X0019954Y0024749
X0019396Y0024257
X0013114Y0022449
X0008396Y0022128
X0000776Y0027208
X0012206Y0034828
T02
X0012557Y0004568
Y0007108
Y0009648
Y0012188
Y0014728
Y0017268
T03
X001546Y0033
X0018
T04
X0006Y000392
Y000646
Y0009
Y001154
Y001946
Y0022
T05
X0005888Y0031426
M30
