G04*
G04 #@! TF.GenerationSoftware,Altium Limited,Altium Designer,26.6.0 (10)*
G04*
G04 Layer_Color=8388736*
G04 Board_Origin=6694604|23288084*
%FSLAX43Y43*%
%MOMM*%
G71*
G04*
G04 #@! TF.SameCoordinates,0815C9CD-1526-4CDF-8251-623C4E78D098*
G04*
G04*
G04 #@! TF.FilePolarity,Negative*
G04*
G01*
G75*
%ADD17C,0.254*%
%ADD23R,1.003X1.003*%
%ADD24R,1.003X1.003*%
%ADD25R,0.503X1.053*%
%ADD26R,1.503X1.703*%
%ADD27R,1.803X2.003*%
%ADD28C,10.303*%
%ADD29C,1.753*%
%ADD30C,2.000*%
%ADD31C,2.203*%
%ADD32R,1.753X1.753*%
%ADD33C,1.803*%
G04:AMPARAMS|DCode=34|XSize=1.803mm|YSize=1.803mm|CornerRadius=0.502mm|HoleSize=0mm|Usage=FLASHONLY|Rotation=0.000|XOffset=0mm|YOffset=0mm|HoleType=Round|Shape=RoundedRectangle|*
%AMROUNDEDRECTD34*
21,1,1.803,0.800,0,0,0.0*
21,1,0.800,1.803,0,0,0.0*
1,1,1.003,0.400,-0.400*
1,1,1.003,-0.400,-0.400*
1,1,1.003,-0.400,0.400*
1,1,1.003,0.400,0.400*
%
%ADD34ROUNDEDRECTD34*%
%ADD35R,2.000X2.000*%
%ADD36R,2.203X2.203*%
D17*
X19325Y-8D02*
G03*
X21825Y2492I0J2500D01*
G01*
Y35003D02*
G03*
X19325Y37503I-2500J0D01*
G01*
X0Y2503D02*
G03*
X2500Y3I2500J0D01*
G01*
Y37514D02*
G03*
X0Y35014I0J-2500D01*
G01*
X19000Y0D02*
X19325Y-8D01*
X18500Y3D02*
X19000Y0D01*
X18500Y37514D02*
X19325Y37503D01*
X2500Y37514D02*
X18500D01*
X21825Y2492D02*
Y35003D01*
X2500Y3D02*
X18500D01*
X0Y2503D02*
Y35014D01*
D23*
X18001Y16989D02*
D03*
X19515Y8423D02*
D03*
X19501Y13332D02*
D03*
Y14832D02*
D03*
X14984Y12166D02*
D03*
Y10666D02*
D03*
X19515Y9923D02*
D03*
X19601Y16989D02*
D03*
D24*
X17839Y14826D02*
D03*
X16339D02*
D03*
X17768Y8399D02*
D03*
X16268D02*
D03*
D25*
X17542Y13098D02*
D03*
X18042Y9998D02*
D03*
X17542D02*
D03*
X17042D02*
D03*
X16542D02*
D03*
Y13098D02*
D03*
X17042D02*
D03*
X18042D02*
D03*
D26*
X17244Y26105D02*
D03*
Y21536D02*
D03*
X17299Y19586D02*
D03*
X19144Y26105D02*
D03*
Y21536D02*
D03*
X19199Y19586D02*
D03*
D27*
X16401Y23797D02*
D03*
X19201D02*
D03*
D28*
X5888Y31426D02*
D03*
D29*
X12557Y14728D02*
D03*
Y17268D02*
D03*
Y12188D02*
D03*
Y7108D02*
D03*
Y9648D02*
D03*
D30*
X6000Y22000D02*
D03*
D31*
Y11540D02*
D03*
Y9000D02*
D03*
Y6460D02*
D03*
D32*
X12557Y4568D02*
D03*
D33*
X18000Y33000D02*
D03*
D34*
X15460D02*
D03*
D35*
X6000Y19460D02*
D03*
D36*
Y3920D02*
D03*
M02*
