G04*
G04 #@! TF.GenerationSoftware,Altium Limited,Altium Designer,26.6.0 (10)*
G04*
G04 Layer_Physical_Order=2*
G04 Layer_Color=16711680*
G04 Board_Origin=6694604|23288084*
%FSLAX43Y43*%
%MOMM*%
G71*
G04*
G04 #@! TF.SameCoordinates,0815C9CD-1526-4CDF-8251-623C4E78D098*
G04*
G04*
G04 #@! TF.FilePolarity,Positive*
G04*
G01*
G75*
%ADD13C,0.200*%
%ADD17C,0.254*%
%ADD18R,0.800X0.800*%
%ADD19R,0.800X0.800*%
%ADD30C,2.000*%
%ADD35R,2.000X2.000*%
%ADD38C,10.100*%
%ADD39C,1.550*%
%ADD40R,1.550X1.550*%
%ADD41C,1.600*%
G04:AMPARAMS|DCode=42|XSize=1.6mm|YSize=1.6mm|CornerRadius=0.4mm|HoleSize=0mm|Usage=FLASHONLY|Rotation=0.000|XOffset=0mm|YOffset=0mm|HoleType=Round|Shape=RoundedRectangle|*
%AMROUNDEDRECTD42*
21,1,1.600,0.800,0,0,0.0*
21,1,0.800,1.600,0,0,0.0*
1,1,0.800,0.400,-0.400*
1,1,0.800,-0.400,-0.400*
1,1,0.800,-0.400,0.400*
1,1,0.800,0.400,0.400*
%
%ADD42ROUNDEDRECTD42*%
%ADD43C,0.600*%
%ADD44O,0.850X0.280*%
%ADD45R,1.500X1.300*%
%ADD46R,1.700X2.150*%
%ADD47R,1.300X3.400*%
%ADD48C,0.483*%
%ADD49C,0.318*%
G36*
X19322Y37299D02*
X19324Y37299D01*
X19325Y37299D01*
X19551D01*
X19995Y37211D01*
X20413Y37038D01*
X20789Y36786D01*
X21109Y36466D01*
X21360Y36090D01*
X21533Y35672D01*
X21621Y35229D01*
Y35003D01*
Y2492D01*
Y2266D01*
X21533Y1822D01*
X21360Y1404D01*
X21109Y1028D01*
X20789Y708D01*
X20413Y457D01*
X19995Y284D01*
X19551Y196D01*
X19328D01*
X19005Y204D01*
X19003Y203D01*
X19001Y204D01*
X18501Y207D01*
X18501Y207D01*
X18500Y207D01*
X2500Y207D01*
X2274D01*
X1830Y295D01*
X1413Y468D01*
X1037Y719D01*
X717Y1039D01*
X465Y1415D01*
X292Y1833D01*
X204Y2277D01*
Y2503D01*
Y35014D01*
Y35240D01*
X292Y35683D01*
X465Y36101D01*
X717Y36477D01*
X1037Y36797D01*
X1413Y37049D01*
X1830Y37222D01*
X2274Y37310D01*
X18499D01*
X19322Y37299D01*
D02*
G37*
%LPC*%
G36*
X18125Y33950D02*
X17875D01*
X17633Y33885D01*
X17417Y33760D01*
X17240Y33583D01*
X17115Y33367D01*
X17050Y33125D01*
Y32875D01*
X17115Y32633D01*
X17240Y32417D01*
X17417Y32240D01*
X17633Y32115D01*
X17875Y32050D01*
X18125D01*
X18367Y32115D01*
X18583Y32240D01*
X18760Y32417D01*
X18885Y32633D01*
X18950Y32875D01*
Y33125D01*
X18885Y33367D01*
X18760Y33583D01*
X18583Y33760D01*
X18367Y33885D01*
X18125Y33950D01*
D02*
G37*
G36*
X15860Y33961D02*
X15060D01*
X14845Y33918D01*
X14663Y33797D01*
X14542Y33615D01*
X14499Y33400D01*
Y32600D01*
X14542Y32385D01*
X14663Y32203D01*
X14845Y32082D01*
X15060Y32039D01*
X15860D01*
X16075Y32082D01*
X16257Y32203D01*
X16378Y32385D01*
X16421Y32600D01*
Y33400D01*
X16378Y33615D01*
X16257Y33797D01*
X16075Y33918D01*
X15860Y33961D01*
D02*
G37*
G36*
X6239Y36776D02*
X6038D01*
Y31576D01*
X11238D01*
Y31777D01*
X11147Y32472D01*
X10965Y33150D01*
X10697Y33797D01*
X10346Y34405D01*
X9919Y34961D01*
X9423Y35457D01*
X8867Y35884D01*
X8260Y36235D01*
X7612Y36503D01*
X6934Y36685D01*
X6239Y36776D01*
D02*
G37*
G36*
X5738D02*
X5538D01*
X4842Y36685D01*
X4165Y36503D01*
X3517Y36235D01*
X2910Y35884D01*
X2353Y35457D01*
X1857Y34961D01*
X1430Y34405D01*
X1080Y33797D01*
X811Y33150D01*
X630Y32472D01*
X538Y31777D01*
Y31576D01*
X5738D01*
Y36776D01*
D02*
G37*
G36*
X19934Y28730D02*
X19459D01*
Y28255D01*
X19934D01*
Y28730D01*
D02*
G37*
G36*
X19309D02*
X18834D01*
Y28255D01*
X19309D01*
Y28730D01*
D02*
G37*
G36*
X13209Y27506D02*
X12734D01*
Y27031D01*
X13209D01*
Y27506D01*
D02*
G37*
G36*
X12584D02*
X12109D01*
Y27031D01*
X12584D01*
Y27506D01*
D02*
G37*
G36*
X13209Y26881D02*
X12734D01*
Y26406D01*
X13209D01*
Y26881D01*
D02*
G37*
G36*
X12584D02*
X12109D01*
Y26406D01*
X12584D01*
Y26881D01*
D02*
G37*
G36*
X11238Y31276D02*
X6038D01*
Y26076D01*
X6239D01*
X6934Y26168D01*
X7612Y26349D01*
X8260Y26618D01*
X8867Y26968D01*
X9423Y27395D01*
X9919Y27891D01*
X10346Y28447D01*
X10697Y29055D01*
X10965Y29703D01*
X11147Y30380D01*
X11238Y31076D01*
Y31276D01*
D02*
G37*
G36*
X5738D02*
X538D01*
Y31076D01*
X630Y30380D01*
X811Y29703D01*
X1080Y29055D01*
X1430Y28447D01*
X1857Y27891D01*
X2353Y27395D01*
X2910Y26968D01*
X3517Y26618D01*
X4165Y26349D01*
X4842Y26168D01*
X5538Y26076D01*
X5738D01*
Y31276D01*
D02*
G37*
G36*
X19934Y28105D02*
X19384D01*
X18834D01*
Y27732D01*
X18211D01*
X18090Y27708D01*
X17988Y27640D01*
X17981Y27629D01*
X17858Y27506D01*
X17200D01*
Y26406D01*
X18266D01*
X18396Y26400D01*
X18479Y26270D01*
X17930Y24973D01*
X17803Y24998D01*
Y25471D01*
X17755Y25586D01*
X17641Y25633D01*
X17441D01*
X17341Y25592D01*
X17241Y25633D01*
X17041D01*
X16941Y25592D01*
X16841Y25633D01*
X16641D01*
X16541Y25592D01*
X16441Y25633D01*
X16241D01*
X16126Y25586D01*
X16078Y25471D01*
Y24896D01*
X15941D01*
X15941Y24896D01*
Y24896D01*
X15890Y24927D01*
X15864Y24944D01*
X15836Y24949D01*
X15751Y24966D01*
X15730D01*
X15729Y24980D01*
X15728Y25013D01*
X15721Y25030D01*
Y26067D01*
X15948Y26294D01*
X15965Y26300D01*
X15990Y26324D01*
X16011Y26342D01*
X16031Y26357D01*
X16050Y26369D01*
X16067Y26379D01*
X16083Y26386D01*
X16098Y26391D01*
X16111Y26394D01*
X16124Y26396D01*
X16144Y26397D01*
X16163Y26406D01*
X16800D01*
Y27506D01*
X15700D01*
Y26870D01*
X15691Y26850D01*
X15690Y26830D01*
X15688Y26818D01*
X15685Y26804D01*
X15679Y26789D01*
X15672Y26774D01*
X15663Y26756D01*
X15651Y26737D01*
X15636Y26717D01*
X15618Y26696D01*
X15594Y26671D01*
X15587Y26654D01*
X15285Y26352D01*
X15230Y26270D01*
X15211Y26172D01*
Y25030D01*
X15203Y25013D01*
X15202Y24980D01*
X15201Y24966D01*
X15181D01*
X15067Y24944D01*
X14972Y24880D01*
X14923Y24807D01*
X14812Y24821D01*
X14796Y24828D01*
Y26342D01*
X14803Y26360D01*
X14796Y26378D01*
Y26574D01*
X14776Y26672D01*
X14721Y26755D01*
X14709Y26767D01*
Y27506D01*
X13609D01*
Y26406D01*
X14276D01*
X14278Y26388D01*
X14279Y26355D01*
X14286Y26339D01*
Y24592D01*
X14305Y24495D01*
X14361Y24412D01*
X14780Y23993D01*
X14832Y23958D01*
X14840Y23855D01*
X14830Y23818D01*
X14812Y23811D01*
X14798Y23798D01*
X14029Y23507D01*
X13254Y23382D01*
X12208D01*
Y23305D01*
X11600Y22904D01*
X11488Y22964D01*
Y23474D01*
X9688D01*
Y22749D01*
X10636D01*
X10649Y22622D01*
X9829Y22449D01*
X9688D01*
Y22376D01*
X7688Y21183D01*
X7049Y21031D01*
X6985Y21146D01*
X7040Y21202D01*
X7211Y21498D01*
X7300Y21829D01*
Y21850D01*
X6000D01*
X4700D01*
Y21829D01*
X4789Y21498D01*
X4960Y21202D01*
X5202Y20960D01*
X5368Y20864D01*
X5344Y20731D01*
X5050Y20681D01*
X5035Y20672D01*
X5018Y20672D01*
X4995Y20650D01*
X4965Y20639D01*
X4959Y20624D01*
X4944Y20615D01*
X4943Y20610D01*
X4850D01*
Y20407D01*
X4753Y20186D01*
X4753Y20171D01*
X4744Y20159D01*
X4548Y19355D01*
X4554Y19318D01*
X4547Y19281D01*
X4842Y17965D01*
X4866Y17929D01*
X4882Y17889D01*
X4884Y17888D01*
X4885Y17885D01*
X4902Y17878D01*
X4913Y17863D01*
X4956Y17855D01*
X4995Y17838D01*
X4998Y17839D01*
X5000Y17838D01*
X8000D01*
X8044Y17856D01*
X8091Y17866D01*
X13849Y21760D01*
X13909Y21782D01*
X14008D01*
Y21834D01*
X14018Y21840D01*
X14104Y21915D01*
X14167Y21961D01*
X14179Y21980D01*
X14780Y22502D01*
X14898Y22454D01*
X15142Y19119D01*
X15150Y19103D01*
Y16298D01*
X16307D01*
X16375Y16190D01*
X15853Y15069D01*
X15851Y15033D01*
X15838Y15000D01*
X15849Y14973D01*
X15847Y14944D01*
X15872Y14918D01*
X15885Y14885D01*
X15912Y14874D01*
X15931Y14853D01*
X15967Y14851D01*
X16000Y14838D01*
X17000D01*
X17115Y14885D01*
X18115Y15885D01*
X18162Y16000D01*
X18115Y16115D01*
X18049Y16180D01*
X18098Y16298D01*
X18850D01*
Y19739D01*
X18996Y22641D01*
X19026Y22701D01*
X19027Y22703D01*
X19079Y22757D01*
X19462Y22698D01*
Y22693D01*
X19491D01*
X19592Y22678D01*
X19596Y22679D01*
X19599Y22677D01*
X19656Y22693D01*
X19656Y22693D01*
X20562D01*
Y23443D01*
X20566Y23451D01*
X20564Y23460D01*
X20567Y23468D01*
Y23781D01*
X20569Y23788D01*
Y24316D01*
X20572Y24332D01*
X20569Y24348D01*
Y27120D01*
X20545Y27240D01*
X20477Y27342D01*
X20179Y27640D01*
X20077Y27708D01*
X19956Y27732D01*
X19934D01*
Y28105D01*
D02*
G37*
G36*
X14008Y25282D02*
X13183D01*
Y24557D01*
X14008D01*
Y25282D01*
D02*
G37*
G36*
X13033D02*
X12208D01*
Y24557D01*
X13033D01*
Y25282D01*
D02*
G37*
G36*
X14008Y24407D02*
X13183D01*
Y23682D01*
X14008D01*
Y24407D01*
D02*
G37*
G36*
X13033D02*
X12208D01*
Y23682D01*
X13033D01*
Y24407D01*
D02*
G37*
G36*
X11488Y24349D02*
X10663D01*
Y23624D01*
X11488D01*
Y24349D01*
D02*
G37*
G36*
X10513D02*
X9688D01*
Y23624D01*
X10513D01*
Y24349D01*
D02*
G37*
G36*
X6171Y23300D02*
X6150D01*
Y22150D01*
X7300D01*
Y22171D01*
X7211Y22502D01*
X7040Y22798D01*
X6798Y23040D01*
X6502Y23211D01*
X6171Y23300D01*
D02*
G37*
G36*
X5850D02*
X5829D01*
X5498Y23211D01*
X5202Y23040D01*
X4960Y22798D01*
X4789Y22502D01*
X4700Y22171D01*
Y22150D01*
X5850D01*
Y23300D01*
D02*
G37*
G36*
X20562Y22293D02*
X19462D01*
Y21193D01*
X19781D01*
X19782Y21175D01*
X19783Y21142D01*
X19791Y21125D01*
Y18518D01*
X19783Y18502D01*
X19782Y18481D01*
X19781Y18467D01*
X19778Y18454D01*
X19774Y18441D01*
X19769Y18429D01*
X19763Y18416D01*
X19756Y18403D01*
X19746Y18390D01*
X19735Y18377D01*
X19718Y18359D01*
X19707Y18331D01*
X19664Y18288D01*
X19596Y18122D01*
Y17943D01*
X19664Y17778D01*
X19791Y17651D01*
X19956Y17583D01*
X20135D01*
X20300Y17651D01*
X20427Y17778D01*
X20496Y17943D01*
Y18122D01*
X20427Y18288D01*
X20384Y18331D01*
X20373Y18359D01*
X20356Y18377D01*
X20345Y18390D01*
X20335Y18403D01*
X20328Y18416D01*
X20322Y18429D01*
X20317Y18441D01*
X20313Y18454D01*
X20310Y18467D01*
X20309Y18481D01*
X20308Y18502D01*
X20300Y18518D01*
Y21125D01*
X20308Y21142D01*
X20309Y21175D01*
X20310Y21193D01*
X20562D01*
Y22293D01*
D02*
G37*
G36*
X12678Y18193D02*
X12435D01*
X12200Y18130D01*
X11989Y18008D01*
X11816Y17836D01*
X11695Y17625D01*
X11632Y17390D01*
Y17146D01*
X11695Y16911D01*
X11816Y16700D01*
X11989Y16528D01*
X12200Y16406D01*
X12435Y16343D01*
X12678D01*
X12914Y16406D01*
X13125Y16528D01*
X13297Y16700D01*
X13418Y16911D01*
X13482Y17146D01*
Y17390D01*
X13418Y17625D01*
X13297Y17836D01*
X13125Y18008D01*
X12914Y18130D01*
X12678Y18193D01*
D02*
G37*
G36*
X12707Y15801D02*
Y14878D01*
X13629D01*
X13558Y15143D01*
X13417Y15388D01*
X13217Y15588D01*
X12971Y15730D01*
X12707Y15801D01*
D02*
G37*
G36*
X12407D02*
X12142Y15730D01*
X11896Y15588D01*
X11696Y15388D01*
X11555Y15143D01*
X11484Y14878D01*
X12407D01*
Y15801D01*
D02*
G37*
G36*
X13629Y14578D02*
X12707D01*
Y13655D01*
X12971Y13726D01*
X13217Y13868D01*
X13417Y14068D01*
X13558Y14313D01*
X13629Y14578D01*
D02*
G37*
G36*
X12407D02*
X11484D01*
X11555Y14313D01*
X11696Y14068D01*
X11896Y13868D01*
X12142Y13726D01*
X12407Y13655D01*
Y14578D01*
D02*
G37*
G36*
X6171Y12840D02*
X6150D01*
Y11690D01*
X7300D01*
Y11711D01*
X7211Y12042D01*
X7040Y12338D01*
X6798Y12580D01*
X6502Y12751D01*
X6171Y12840D01*
D02*
G37*
G36*
X5850D02*
X5829D01*
X5498Y12751D01*
X5202Y12580D01*
X4960Y12338D01*
X4789Y12042D01*
X4700Y11711D01*
Y11690D01*
X5850D01*
Y12840D01*
D02*
G37*
G36*
X12678Y13113D02*
X12435D01*
X12200Y13050D01*
X11989Y12928D01*
X11816Y12756D01*
X11695Y12545D01*
X11632Y12310D01*
Y12066D01*
X11695Y11831D01*
X11816Y11620D01*
X11989Y11448D01*
X12200Y11326D01*
X12294Y11301D01*
X12277Y11174D01*
X7919D01*
X7821Y11154D01*
X7738Y11099D01*
X6968Y10328D01*
X6954Y10324D01*
X6917Y10293D01*
X6877Y10270D01*
X6821Y10247D01*
X6749Y10224D01*
X6661Y10205D01*
X6563Y10189D01*
X6442Y10181D01*
X6421Y10307D01*
X6502Y10329D01*
X6798Y10500D01*
X7040Y10742D01*
X7211Y11038D01*
X7300Y11369D01*
Y11390D01*
X6000D01*
X4700D01*
Y11369D01*
X4789Y11038D01*
X4960Y10742D01*
X5202Y10500D01*
X5498Y10329D01*
X5761Y10258D01*
Y10127D01*
X5556Y10072D01*
X5294Y9920D01*
X5080Y9706D01*
X4928Y9444D01*
X4850Y9151D01*
Y8849D01*
X4928Y8556D01*
X5080Y8294D01*
X5294Y8080D01*
X5556Y7928D01*
X5849Y7850D01*
X6151D01*
X6444Y7928D01*
X6706Y8080D01*
X6920Y8294D01*
X7072Y8556D01*
X7150Y8849D01*
Y8980D01*
X7162Y9010D01*
X7163Y9169D01*
X7167Y9311D01*
X7189Y9561D01*
X7205Y9661D01*
X7224Y9749D01*
X7247Y9821D01*
X7270Y9877D01*
X7293Y9917D01*
X7324Y9954D01*
X7328Y9968D01*
X8024Y10664D01*
X12283D01*
X12300Y10537D01*
X12200Y10510D01*
X11989Y10388D01*
X11816Y10216D01*
X11695Y10005D01*
X11632Y9770D01*
Y9526D01*
X11695Y9291D01*
X11816Y9080D01*
X11989Y8908D01*
X12200Y8786D01*
X12435Y8723D01*
X12678D01*
X12914Y8786D01*
X13125Y8908D01*
X13297Y9080D01*
X13418Y9291D01*
X13482Y9526D01*
Y9770D01*
X13418Y10005D01*
X13297Y10216D01*
X13125Y10388D01*
X12914Y10510D01*
X12813Y10537D01*
X12830Y10664D01*
X18721D01*
X18818Y10683D01*
X18901Y10738D01*
X19288Y11126D01*
X19305Y11132D01*
X19320Y11146D01*
X19331Y11155D01*
X19342Y11162D01*
X19354Y11168D01*
X19366Y11174D01*
X19380Y11178D01*
X19394Y11182D01*
X19410Y11185D01*
X19428Y11186D01*
X19452Y11187D01*
X19480Y11199D01*
X19540D01*
X19705Y11268D01*
X19831Y11394D01*
X19900Y11560D01*
Y11739D01*
X19831Y11904D01*
X19705Y12031D01*
X19540Y12099D01*
X19360D01*
X19195Y12031D01*
X19069Y11904D01*
X19000Y11739D01*
Y11677D01*
X18988Y11649D01*
X18987Y11624D01*
X18986Y11607D01*
X18983Y11591D01*
X18979Y11577D01*
X18975Y11563D01*
X18970Y11551D01*
X18963Y11540D01*
X18956Y11529D01*
X18948Y11518D01*
X18933Y11502D01*
X18927Y11486D01*
X18615Y11174D01*
X12836D01*
X12819Y11301D01*
X12914Y11326D01*
X13125Y11448D01*
X13297Y11620D01*
X13418Y11831D01*
X13482Y12066D01*
Y12310D01*
X13418Y12545D01*
X13297Y12756D01*
X13125Y12928D01*
X12914Y13050D01*
X12678Y13113D01*
D02*
G37*
G36*
Y8033D02*
X12435D01*
X12200Y7970D01*
X11989Y7848D01*
X11816Y7676D01*
X11695Y7465D01*
X11632Y7230D01*
Y6986D01*
X11695Y6751D01*
X11816Y6540D01*
X11989Y6368D01*
X12200Y6246D01*
X12435Y6183D01*
X12678D01*
X12914Y6246D01*
X13125Y6368D01*
X13297Y6540D01*
X13418Y6751D01*
X13482Y6986D01*
Y7230D01*
X13418Y7465D01*
X13297Y7676D01*
X13125Y7848D01*
X12914Y7970D01*
X12678Y8033D01*
D02*
G37*
G36*
X6151Y7610D02*
X5849D01*
X5556Y7532D01*
X5294Y7380D01*
X5080Y7166D01*
X4928Y6904D01*
X4850Y6611D01*
Y6309D01*
X4928Y6016D01*
X5080Y5754D01*
X5294Y5540D01*
X5556Y5388D01*
X5849Y5310D01*
X6151D01*
X6444Y5388D01*
X6706Y5540D01*
X6920Y5754D01*
X7072Y6016D01*
X7150Y6309D01*
Y6611D01*
X7072Y6904D01*
X6920Y7166D01*
X6706Y7380D01*
X6444Y7532D01*
X6151Y7610D01*
D02*
G37*
G36*
X13482Y5493D02*
X11632D01*
Y3643D01*
X13482D01*
Y5493D01*
D02*
G37*
G36*
X7150Y5070D02*
X4850D01*
Y2770D01*
X7150D01*
Y5070D01*
D02*
G37*
%LPD*%
G36*
X18949Y27342D02*
X18490Y26557D01*
X18145Y26575D01*
X18137Y27343D01*
X18168Y27386D01*
X18949Y27342D01*
D02*
G37*
G36*
X16136Y26560D02*
X16108Y26558D01*
X16079Y26554D01*
X16051Y26547D01*
X16023Y26537D01*
X15994Y26524D01*
X15966Y26509D01*
X15938Y26490D01*
X15910Y26469D01*
X15881Y26445D01*
X15853Y26418D01*
X15712Y26560D01*
X15738Y26588D01*
X15763Y26616D01*
X15784Y26644D01*
X15802Y26673D01*
X15818Y26701D01*
X15830Y26729D01*
X15840Y26758D01*
X15847Y26786D01*
X15852Y26814D01*
X15853Y26842D01*
X16136Y26560D01*
D02*
G37*
G36*
X14641Y26360D02*
X14441D01*
X14440Y26398D01*
X14437Y26432D01*
X14432Y26462D01*
X14425Y26488D01*
X14416Y26510D01*
X14405Y26528D01*
X14392Y26542D01*
X14377Y26552D01*
X14360Y26558D01*
X14341Y26560D01*
X14556D01*
X14641Y26360D01*
D02*
G37*
G36*
X15567Y24971D02*
X15570Y24937D01*
X15575Y24907D01*
X15582Y24881D01*
X15591Y24859D01*
X15602Y24841D01*
X15615Y24827D01*
X15630Y24817D01*
X15647Y24811D01*
X15666Y24809D01*
X15266D01*
X15285Y24811D01*
X15302Y24817D01*
X15317Y24827D01*
X15330Y24841D01*
X15341Y24859D01*
X15350Y24881D01*
X15357Y24907D01*
X15362Y24937D01*
X15365Y24971D01*
X15366Y25009D01*
X15566D01*
X15567Y24971D01*
D02*
G37*
G36*
X17641Y24731D02*
X17441D01*
Y25471D01*
X17641D01*
Y24731D01*
D02*
G37*
G36*
X17241D02*
X17041D01*
Y25471D01*
X17241D01*
Y24731D01*
D02*
G37*
G36*
X16841D02*
X16641D01*
Y25471D01*
X16841D01*
Y24731D01*
D02*
G37*
G36*
X16441D02*
X16241D01*
Y25471D01*
X16441D01*
Y24731D01*
D02*
G37*
G36*
X19787Y26510D02*
Y26222D01*
X18839Y24646D01*
X18001Y24724D01*
X18528Y25969D01*
X18992Y27066D01*
X19787Y26510D01*
D02*
G37*
G36*
X17677Y24360D02*
X17699Y24341D01*
X17723Y24325D01*
X17746Y24310D01*
X17771Y24298D01*
X17788Y24292D01*
Y24371D01*
X17790Y24352D01*
X17796Y24335D01*
X17806Y24320D01*
X17820Y24307D01*
X17838Y24296D01*
X17860Y24287D01*
X17886Y24280D01*
X17916Y24275D01*
X17924Y24274D01*
X18031Y24280D01*
X18044Y24283D01*
X18055Y24287D01*
X18062Y24290D01*
Y24051D01*
X18055Y24055D01*
X18044Y24058D01*
X18031Y24061D01*
X18013Y24064D01*
X17968Y24068D01*
X17937Y24069D01*
X17916Y24067D01*
X17886Y24062D01*
X17860Y24055D01*
X17838Y24046D01*
X17820Y24035D01*
X17806Y24022D01*
X17796Y24007D01*
X17790Y23990D01*
X17788Y23971D01*
Y24050D01*
X17771Y24043D01*
X17746Y24031D01*
X17723Y24017D01*
X17699Y24000D01*
X17677Y23982D01*
X17655Y23961D01*
Y24381D01*
X17677Y24360D01*
D02*
G37*
G36*
X17513Y23880D02*
X17488Y23873D01*
X17439Y23857D01*
X17414Y23847D01*
X17366Y23826D01*
X17340Y23812D01*
X17338Y23810D01*
X17319Y23791D01*
X17302Y23770D01*
X17286Y23748D01*
X17272Y23724D01*
X17261Y23699D01*
X17250Y23672D01*
X17242Y23644D01*
X17235Y23615D01*
X17002Y23964D01*
X17032Y23959D01*
X17061Y23956D01*
X17090Y23955D01*
X17118Y23956D01*
X17145Y23960D01*
X17146Y23960D01*
X17150Y23968D01*
X17157Y23990D01*
X17161Y24012D01*
X17162Y24035D01*
X17159Y24059D01*
X17153Y24084D01*
X17513Y23880D01*
D02*
G37*
G36*
X15148Y23611D02*
X15323Y23671D01*
X15466D01*
Y23171D01*
X15323D01*
X15195Y23163D01*
X15169Y23142D01*
X15290Y23033D01*
X15265Y23031D01*
X15240Y23028D01*
X15214Y23021D01*
X15187Y23013D01*
X15160Y23002D01*
X15132Y22988D01*
X15104Y22972D01*
X15074Y22953D01*
X15014Y22909D01*
X14965Y22970D01*
X14040Y22192D01*
X14072Y22092D01*
X13885Y21956D01*
X13890Y21948D01*
X13855Y21935D01*
X13855Y21935D01*
Y21935D01*
X13774Y21905D01*
X8000Y18000D01*
X5000D01*
X4706Y19316D01*
X4902Y20121D01*
X5077Y20521D01*
X6931Y20836D01*
X7749Y21031D01*
X9858Y22289D01*
X11485Y22634D01*
X12366Y23215D01*
X13000Y23000D01*
X13042Y22998D01*
X13013Y23178D01*
X13181Y23205D01*
X13181Y23207D01*
X13182Y23206D01*
X14250Y23378D01*
X14031Y23226D01*
X14919Y23532D01*
X14870Y23660D01*
X14905Y23674D01*
X15035Y23732D01*
X15051Y23742D01*
X15065Y23752D01*
X15075Y23760D01*
X15083Y23768D01*
X15148Y23611D01*
D02*
G37*
G36*
X20190Y27201D02*
X20313Y25632D01*
X20405Y24469D01*
Y24365D01*
X20413Y24364D01*
X20405Y24324D01*
Y23468D01*
X19617Y22838D01*
X18386Y23028D01*
X18291Y23123D01*
X18386Y23801D01*
X18863Y23878D01*
X18978Y23999D01*
X19023Y24533D01*
X19975Y26127D01*
X20029Y27228D01*
X20190Y27201D01*
D02*
G37*
G36*
X17641Y21910D02*
X17641Y21910D01*
Y21871D01*
X17636D01*
X17576Y21338D01*
X17283Y20035D01*
X16734Y20011D01*
X16718Y20114D01*
X16322Y21366D01*
X16245Y21871D01*
X16241D01*
Y22611D01*
X17641D01*
X17641Y21910D01*
D02*
G37*
G36*
X18834Y22667D02*
X18673Y19447D01*
X17408Y19807D01*
X17802Y21653D01*
X18006Y22672D01*
X18834Y22667D01*
D02*
G37*
G36*
X16042Y21692D02*
X16596Y19841D01*
X15304Y19131D01*
X15045Y22668D01*
X15886Y22673D01*
X16042Y21692D01*
D02*
G37*
G36*
X18000Y16000D02*
X17000Y15000D01*
X16000D01*
X16604Y16298D01*
X17702D01*
X18000Y16000D01*
D02*
G37*
%LPC*%
G36*
X13747Y23028D02*
X13414Y22795D01*
X13474Y22766D01*
X13452Y22747D01*
X13444Y22738D01*
X13836Y22042D01*
X13850Y22039D01*
X13768Y23013D01*
X13747Y23028D01*
D02*
G37*
%LPD*%
G36*
X20227Y21344D02*
X20210Y21338D01*
X20195Y21328D01*
X20182Y21314D01*
X20171Y21296D01*
X20162Y21274D01*
X20155Y21248D01*
X20150Y21218D01*
X20147Y21184D01*
X20146Y21146D01*
X19946D01*
X19945Y21184D01*
X19942Y21218D01*
X19937Y21248D01*
X19930Y21274D01*
X19921Y21296D01*
X19910Y21314D01*
X19897Y21328D01*
X19882Y21338D01*
X19865Y21344D01*
X19846Y21346D01*
X20246D01*
X20227Y21344D01*
D02*
G37*
G36*
X20147Y18468D02*
X20150Y18441D01*
X20155Y18414D01*
X20163Y18388D01*
X20173Y18363D01*
X20185Y18338D01*
X20199Y18315D01*
X20216Y18291D01*
X20235Y18269D01*
X20256Y18247D01*
X19836D01*
X19856Y18269D01*
X19875Y18291D01*
X19892Y18315D01*
X19906Y18338D01*
X19918Y18363D01*
X19928Y18388D01*
X19936Y18414D01*
X19941Y18441D01*
X19944Y18468D01*
X19946Y18495D01*
X20146D01*
X20147Y18468D01*
D02*
G37*
G36*
X19448Y11349D02*
X19418Y11348D01*
X19388Y11346D01*
X19360Y11341D01*
X19333Y11334D01*
X19307Y11325D01*
X19283Y11314D01*
X19259Y11302D01*
X19236Y11287D01*
X19215Y11270D01*
X19194Y11251D01*
X19052Y11392D01*
X19071Y11412D01*
X19088Y11434D01*
X19103Y11456D01*
X19116Y11480D01*
X19127Y11505D01*
X19135Y11531D01*
X19142Y11558D01*
X19147Y11586D01*
X19149Y11615D01*
X19150Y11645D01*
X19448Y11349D01*
D02*
G37*
G36*
X7199Y10057D02*
X7159Y10009D01*
X7124Y9949D01*
X7094Y9876D01*
X7067Y9790D01*
X7045Y9692D01*
X7028Y9581D01*
X7005Y9321D01*
X7000Y9172D01*
X7000Y9010D01*
X6010Y10000D01*
X6172Y10000D01*
X6581Y10028D01*
X6692Y10045D01*
X6790Y10067D01*
X6876Y10094D01*
X6949Y10124D01*
X7009Y10159D01*
X7057Y10199D01*
X7199Y10057D01*
D02*
G37*
D13*
X14937Y22975D02*
G03*
X14925Y22965I244J-304D01*
G01*
X17691Y24171D02*
X18416D01*
X16941Y23671D02*
X17691Y24171D01*
X17000Y16000D02*
X17003Y16003D01*
X13247Y22582D02*
X13264D01*
X13178Y22651D02*
X13758Y23132D01*
X13264Y22582D02*
X13575Y22350D01*
X15181Y23671D02*
X15466D01*
X13114Y22449D02*
X13178Y22513D01*
X13108Y22582D02*
X13178Y22651D01*
X13758Y23132D02*
X15181Y23671D01*
X14937Y22975D02*
X15181Y23171D01*
X20046Y18033D02*
Y21710D01*
X20012Y21743D02*
X20046Y21710D01*
X18416Y23671D02*
X20137D01*
X18721Y10919D02*
X19450Y11648D01*
Y11649D01*
X7919Y10919D02*
X18721D01*
X6000Y9000D02*
X7919Y10919D01*
X20137Y23671D02*
X20254Y23788D01*
X18137Y27343D02*
X18211Y27417D01*
X18137Y27343D02*
X18137D01*
X14541Y24592D02*
X14960Y24173D01*
X15464D02*
X15466Y24171D01*
X14541Y24592D02*
Y26574D01*
X14960Y24173D02*
X15464D01*
X14333Y26782D02*
X14541Y26574D01*
X14333Y26782D02*
Y26858D01*
X15466Y26172D02*
X16250Y26956D01*
X15466Y24671D02*
Y26172D01*
X13851Y22032D02*
X14925Y22965D01*
X15181Y23171D02*
X15466D01*
D17*
X19325Y-8D02*
G03*
X21825Y2492I0J2500D01*
G01*
Y35003D02*
G03*
X19325Y37503I-2500J0D01*
G01*
X0Y2503D02*
G03*
X2500Y3I2500J0D01*
G01*
Y37514D02*
G03*
X0Y35014I0J-2500D01*
G01*
X19000Y0D02*
X19325Y-8D01*
X18500Y3D02*
X19000Y0D01*
X18500Y37514D02*
X19325Y37503D01*
X2500Y37514D02*
X18500D01*
X21825Y2492D02*
Y35003D01*
X2500Y3D02*
X18500D01*
X0Y2503D02*
Y35014D01*
D18*
X19384Y28180D02*
D03*
Y26680D02*
D03*
X20012Y23243D02*
D03*
Y21743D02*
D03*
D19*
X12659Y26956D02*
D03*
X14159D02*
D03*
X17750Y26956D02*
D03*
X16250D02*
D03*
D30*
X6000Y22000D02*
D03*
Y11540D02*
D03*
Y9000D02*
D03*
Y6460D02*
D03*
D35*
Y19460D02*
D03*
Y3920D02*
D03*
D38*
X5888Y31426D02*
D03*
D39*
X12557Y14728D02*
D03*
Y17268D02*
D03*
Y12188D02*
D03*
Y7108D02*
D03*
Y9648D02*
D03*
D40*
Y4568D02*
D03*
D41*
X18000Y33000D02*
D03*
D42*
X15460D02*
D03*
D43*
X19826Y34828D02*
D03*
Y29748D02*
D03*
X18556Y11968D02*
D03*
Y6888D02*
D03*
Y1808D02*
D03*
X17286Y34828D02*
D03*
Y29748D02*
D03*
Y4348D02*
D03*
X16016Y1808D02*
D03*
X14746Y34828D02*
D03*
X13476Y32288D02*
D03*
X14746Y14508D02*
D03*
Y9428D02*
D03*
X13476Y1808D02*
D03*
X12206Y34828D02*
D03*
Y29748D02*
D03*
X10936Y27208D02*
D03*
X12206Y19588D02*
D03*
X10936Y17048D02*
D03*
Y6888D02*
D03*
Y1808D02*
D03*
X9666Y24668D02*
D03*
X8396Y22128D02*
D03*
Y17048D02*
D03*
X9666Y14508D02*
D03*
X8396Y11968D02*
D03*
X9666Y9428D02*
D03*
X8396Y6888D02*
D03*
X9666Y4348D02*
D03*
X8396Y1808D02*
D03*
X7126Y24668D02*
D03*
X5856Y17048D02*
D03*
X7126Y14508D02*
D03*
X5856Y1808D02*
D03*
X4586Y24668D02*
D03*
X3316Y22128D02*
D03*
Y17048D02*
D03*
X4586Y14508D02*
D03*
X3316Y11968D02*
D03*
X4586Y9428D02*
D03*
X3316Y6888D02*
D03*
Y1808D02*
D03*
X776Y27208D02*
D03*
X2046Y24668D02*
D03*
X776Y22128D02*
D03*
X2046Y19588D02*
D03*
X776Y17048D02*
D03*
X2046Y14508D02*
D03*
X776Y11968D02*
D03*
X2046Y9428D02*
D03*
X776Y6888D02*
D03*
X2046Y4348D02*
D03*
X776Y1808D02*
D03*
X17441Y24171D02*
D03*
Y23171D02*
D03*
X17331Y26011D02*
D03*
X17267Y21356D02*
D03*
X16946Y20625D02*
D03*
X16525Y26006D02*
D03*
X16941Y23671D02*
D03*
X16441Y23171D02*
D03*
Y24171D02*
D03*
X16623Y21351D02*
D03*
X15784Y5596D02*
D03*
X13114Y22449D02*
D03*
X20046Y18033D02*
D03*
X19450Y11649D02*
D03*
X19954Y24749D02*
D03*
X20049Y23965D02*
D03*
X19396Y24257D02*
D03*
X19789Y23260D02*
D03*
X19113Y23528D02*
D03*
D44*
X18416Y24171D02*
D03*
X15466Y24671D02*
D03*
Y24171D02*
D03*
Y23671D02*
D03*
Y23171D02*
D03*
Y22671D02*
D03*
X18416D02*
D03*
Y23171D02*
D03*
Y23671D02*
D03*
Y24671D02*
D03*
D45*
X13108Y24482D02*
D03*
X10588Y23549D02*
D03*
Y21649D02*
D03*
X13108Y22582D02*
D03*
D46*
X16941Y23671D02*
D03*
D47*
X18050Y18147D02*
D03*
X15950D02*
D03*
D48*
X17003Y16003D02*
Y20168D01*
D49*
X19956Y27417D02*
X20254Y27120D01*
Y23788D02*
Y27120D01*
X18211Y27417D02*
X19956D01*
X17995Y27198D02*
X18214Y27417D01*
X17753Y26960D02*
X17991Y27198D01*
X17995D01*
X17753Y26956D02*
Y26960D01*
M02*
