G04*
G04 #@! TF.GenerationSoftware,Altium Limited,Altium Designer,26.6.0 (10)*
G04*
G04 Layer_Color=8421504*
G04 Board_Origin=6694604|23288084*
%FSLAX43Y43*%
%MOMM*%
G71*
G04*
G04 #@! TF.SameCoordinates,0815C9CD-1526-4CDF-8251-623C4E78D098*
G04*
G04*
G04 #@! TF.FilePolarity,Positive*
G04*
G01*
G75*
%ADD17C,0.254*%
%ADD18R,0.800X0.800*%
%ADD19R,0.800X0.800*%
%ADD20R,0.300X0.850*%
%ADD21R,1.300X1.500*%
%ADD22R,1.600X1.800*%
D17*
X19325Y-8D02*
G03*
X21825Y2492I0J2500D01*
G01*
Y35003D02*
G03*
X19325Y37503I-2500J0D01*
G01*
X0Y2503D02*
G03*
X2500Y3I2500J0D01*
G01*
Y37514D02*
G03*
X0Y35014I0J-2500D01*
G01*
X19000Y0D02*
X19325Y-8D01*
X18500Y3D02*
X19000Y0D01*
X18500Y37514D02*
X19325Y37503D01*
X2500Y37514D02*
X18500D01*
X21825Y2492D02*
Y35003D01*
X2500Y3D02*
X18500D01*
X0Y2503D02*
Y35014D01*
D18*
X18001Y16989D02*
D03*
X19515Y8423D02*
D03*
X19501Y13332D02*
D03*
Y14832D02*
D03*
X14984Y12166D02*
D03*
Y10666D02*
D03*
X19515Y9923D02*
D03*
X19601Y16989D02*
D03*
D19*
X17839Y14826D02*
D03*
X16339D02*
D03*
X17768Y8399D02*
D03*
X16268D02*
D03*
D20*
X17542Y13098D02*
D03*
X18042Y9998D02*
D03*
X17542D02*
D03*
X17042D02*
D03*
X16542D02*
D03*
Y13098D02*
D03*
X17042D02*
D03*
X18042D02*
D03*
D21*
X17244Y26105D02*
D03*
Y21536D02*
D03*
X17299Y19586D02*
D03*
X19144Y26105D02*
D03*
Y21536D02*
D03*
X19199Y19586D02*
D03*
D22*
X16401Y23797D02*
D03*
X19201D02*
D03*
M02*
