G04*
G04 #@! TF.GenerationSoftware,Altium Limited,Altium Designer,26.6.0 (10)*
G04*
G04 Layer_Physical_Order=1*
G04 Layer_Color=255*
G04 Board_Origin=6694604|23288084*
%FSLAX43Y43*%
%MOMM*%
G71*
G04*
G04 #@! TF.SameCoordinates,0815C9CD-1526-4CDF-8251-623C4E78D098*
G04*
G04*
G04 #@! TF.FilePolarity,Positive*
G04*
G01*
G75*
%ADD13C,0.200*%
%ADD17C,0.254*%
%ADD18R,0.800X0.800*%
%ADD19R,0.800X0.800*%
%ADD20R,0.300X0.850*%
%ADD21R,1.300X1.500*%
%ADD22R,1.600X1.800*%
%ADD30C,2.000*%
%ADD35R,2.000X2.000*%
%ADD37C,0.508*%
%ADD38C,10.100*%
%ADD39C,1.550*%
%ADD40R,1.550X1.550*%
%ADD41C,1.600*%
G04:AMPARAMS|DCode=42|XSize=1.6mm|YSize=1.6mm|CornerRadius=0.4mm|HoleSize=0mm|Usage=FLASHONLY|Rotation=0.000|XOffset=0mm|YOffset=0mm|HoleType=Round|Shape=RoundedRectangle|*
%AMROUNDEDRECTD42*
21,1,1.600,0.800,0,0,0.0*
21,1,0.800,1.600,0,0,0.0*
1,1,0.800,0.400,-0.400*
1,1,0.800,-0.400,-0.400*
1,1,0.800,-0.400,0.400*
1,1,0.800,0.400,0.400*
%
%ADD42ROUNDEDRECTD42*%
%ADD43C,0.600*%
G36*
X19322Y37299D02*
X19324Y37299D01*
X19325Y37299D01*
X19551D01*
X19995Y37211D01*
X20413Y37038D01*
X20789Y36786D01*
X21109Y36466D01*
X21360Y36090D01*
X21533Y35672D01*
X21621Y35229D01*
Y35003D01*
Y2492D01*
Y2266D01*
X21533Y1822D01*
X21360Y1404D01*
X21109Y1028D01*
X20789Y708D01*
X20413Y457D01*
X19995Y284D01*
X19551Y196D01*
X19328D01*
X19005Y204D01*
X19003Y203D01*
X19001Y204D01*
X18501Y207D01*
X18501Y207D01*
X18500Y207D01*
X2500Y207D01*
X2274D01*
X1830Y295D01*
X1413Y468D01*
X1037Y719D01*
X717Y1039D01*
X465Y1415D01*
X292Y1833D01*
X204Y2277D01*
Y2503D01*
Y35014D01*
Y35240D01*
X292Y35683D01*
X465Y36101D01*
X717Y36477D01*
X1037Y36797D01*
X1413Y37049D01*
X1830Y37222D01*
X2274Y37310D01*
X18499D01*
X19322Y37299D01*
D02*
G37*
%LPC*%
G36*
X6239Y36776D02*
X6038D01*
Y31576D01*
X11238D01*
Y31777D01*
X11147Y32472D01*
X10965Y33150D01*
X10697Y33797D01*
X10346Y34405D01*
X9919Y34961D01*
X9423Y35457D01*
X8867Y35884D01*
X8260Y36235D01*
X7612Y36503D01*
X6934Y36685D01*
X6239Y36776D01*
D02*
G37*
G36*
X5738D02*
X5538D01*
X4842Y36685D01*
X4165Y36503D01*
X3517Y36235D01*
X2910Y35884D01*
X2353Y35457D01*
X1857Y34961D01*
X1430Y34405D01*
X1080Y33797D01*
X811Y33150D01*
X630Y32472D01*
X538Y31777D01*
Y31576D01*
X5738D01*
Y36776D01*
D02*
G37*
G36*
X18044Y27005D02*
X17319D01*
Y26180D01*
X18044D01*
Y27005D01*
D02*
G37*
G36*
X17169D02*
X16444D01*
Y26180D01*
X17169D01*
Y27005D01*
D02*
G37*
G36*
X11238Y31276D02*
X6038D01*
Y26076D01*
X6239D01*
X6934Y26168D01*
X7612Y26349D01*
X8260Y26618D01*
X8867Y26968D01*
X9423Y27395D01*
X9919Y27891D01*
X10346Y28447D01*
X10697Y29055D01*
X10965Y29703D01*
X11147Y30380D01*
X11238Y31076D01*
Y31276D01*
D02*
G37*
G36*
X5738D02*
X538D01*
Y31076D01*
X630Y30380D01*
X811Y29703D01*
X1080Y29055D01*
X1430Y28447D01*
X1857Y27891D01*
X2353Y27395D01*
X2910Y26968D01*
X3517Y26618D01*
X4165Y26349D01*
X4842Y26168D01*
X5538Y26076D01*
X5738D01*
Y31276D01*
D02*
G37*
G36*
X18044Y26030D02*
X17319D01*
Y25205D01*
X18044D01*
Y26030D01*
D02*
G37*
G36*
X17169D02*
X16444D01*
Y25205D01*
X17169D01*
Y26030D01*
D02*
G37*
G36*
X17351Y24847D02*
X16476D01*
Y23872D01*
X17351D01*
Y24847D01*
D02*
G37*
G36*
X16326D02*
X15451D01*
Y23872D01*
X16326D01*
Y24847D01*
D02*
G37*
G36*
X17351Y23722D02*
X16476D01*
Y22747D01*
X17351D01*
Y23722D01*
D02*
G37*
G36*
X16326D02*
X15451D01*
Y22747D01*
X16326D01*
Y23722D01*
D02*
G37*
G36*
X6171Y23300D02*
X6150D01*
Y22150D01*
X7300D01*
Y22171D01*
X7211Y22502D01*
X7040Y22798D01*
X6798Y23040D01*
X6502Y23211D01*
X6171Y23300D01*
D02*
G37*
G36*
X5850D02*
X5829D01*
X5498Y23211D01*
X5202Y23040D01*
X4960Y22798D01*
X4789Y22502D01*
X4700Y22171D01*
Y22150D01*
X5850D01*
Y23300D01*
D02*
G37*
G36*
X15860Y33961D02*
X15060D01*
X14845Y33918D01*
X14663Y33797D01*
X14542Y33615D01*
X14499Y33400D01*
Y32600D01*
X14542Y32385D01*
X14663Y32203D01*
X14845Y32082D01*
X14885Y32074D01*
X14892Y32067D01*
X14927Y32053D01*
X14946Y32042D01*
X14963Y32026D01*
X14980Y32005D01*
X14996Y31977D01*
X15011Y31939D01*
X15025Y31892D01*
X15035Y31835D01*
X15041Y31769D01*
X15044Y31688D01*
X15048Y31679D01*
Y29507D01*
X12823Y27282D01*
X12733Y27148D01*
X12702Y26990D01*
Y22630D01*
X12664Y22538D01*
Y22359D01*
X12732Y22194D01*
X12859Y22067D01*
X13024Y21999D01*
X13203D01*
X13369Y22067D01*
X13495Y22194D01*
X13564Y22359D01*
Y22538D01*
X13526Y22630D01*
Y26820D01*
X15751Y29045D01*
X15841Y29179D01*
X15872Y29337D01*
Y31679D01*
X15876Y31688D01*
X15879Y31769D01*
X15885Y31835D01*
X15895Y31892D01*
X15909Y31939D01*
X15924Y31977D01*
X15940Y32005D01*
X15957Y32026D01*
X15974Y32042D01*
X15993Y32053D01*
X16028Y32067D01*
X16035Y32074D01*
X16075Y32082D01*
X16257Y32203D01*
X16378Y32385D01*
X16421Y32600D01*
Y33400D01*
X16378Y33615D01*
X16257Y33797D01*
X16075Y33918D01*
X15860Y33961D01*
D02*
G37*
G36*
X18044Y22436D02*
X17319D01*
Y21611D01*
X18044D01*
Y22436D01*
D02*
G37*
G36*
X17169D02*
X16444D01*
Y21611D01*
X17169D01*
Y22436D01*
D02*
G37*
G36*
X18044Y21461D02*
X17319D01*
Y20636D01*
X18044D01*
Y21461D01*
D02*
G37*
G36*
X17169D02*
X16444D01*
Y20636D01*
X17169D01*
Y21461D01*
D02*
G37*
G36*
X18099Y20486D02*
X17374D01*
Y19661D01*
X18099D01*
Y20486D01*
D02*
G37*
G36*
X17224D02*
X16499D01*
Y19661D01*
X17224D01*
Y20486D01*
D02*
G37*
G36*
X18099Y19511D02*
X17374D01*
Y18686D01*
X18099D01*
Y19511D01*
D02*
G37*
G36*
X17224D02*
X16499D01*
Y18686D01*
X17224D01*
Y19511D01*
D02*
G37*
G36*
X7300Y21850D02*
X6000D01*
X4700D01*
Y21829D01*
X4789Y21498D01*
X4960Y21202D01*
X5202Y20960D01*
X5498Y20789D01*
X5691Y20737D01*
X5674Y20610D01*
X4850D01*
Y18310D01*
X7150D01*
Y20610D01*
X6326D01*
X6309Y20737D01*
X6502Y20789D01*
X6798Y20960D01*
X7040Y21202D01*
X7211Y21498D01*
X7300Y21829D01*
Y21850D01*
D02*
G37*
G36*
X18125Y33950D02*
X17875D01*
X17633Y33885D01*
X17417Y33760D01*
X17240Y33583D01*
X17115Y33367D01*
X17050Y33125D01*
Y32875D01*
X17115Y32633D01*
X17240Y32417D01*
X17313Y32344D01*
X17325Y32314D01*
X17409Y32229D01*
X17550Y32072D01*
X17604Y32003D01*
X17649Y31939D01*
X17684Y31881D01*
X17710Y31830D01*
X17726Y31786D01*
X17735Y31752D01*
X17738Y31712D01*
X17745Y31699D01*
Y29759D01*
X14385Y26399D01*
X14330Y26316D01*
X14311Y26219D01*
Y17314D01*
X13835D01*
X13833Y17315D01*
X13822Y17314D01*
X13816D01*
X13802Y17321D01*
X13758Y17325D01*
X13727Y17333D01*
X13692Y17347D01*
X13654Y17370D01*
X13613Y17402D01*
X13569Y17445D01*
X13523Y17497D01*
X13476Y17561D01*
X13427Y17635D01*
X13376Y17723D01*
X13351Y17742D01*
X13297Y17836D01*
X13125Y18008D01*
X12914Y18130D01*
X12678Y18193D01*
X12435D01*
X12200Y18130D01*
X11989Y18008D01*
X11816Y17836D01*
X11695Y17625D01*
X11632Y17390D01*
Y17146D01*
X11695Y16911D01*
X11816Y16700D01*
X11989Y16528D01*
X12200Y16406D01*
X12435Y16343D01*
X12678D01*
X12914Y16406D01*
X12992Y16451D01*
X13023Y16455D01*
X13023Y16455D01*
X13024Y16455D01*
X13143Y16523D01*
X13444Y16683D01*
X13593Y16752D01*
X13649Y16774D01*
X13694Y16788D01*
X13723Y16795D01*
X13748Y16798D01*
X13761Y16804D01*
X14343D01*
X15789Y15359D01*
Y15246D01*
X15779Y15223D01*
X15785Y15210D01*
X15782Y15196D01*
X15789Y15185D01*
Y14276D01*
X16425D01*
X16445Y14267D01*
X16465Y14266D01*
X16478Y14264D01*
X16491Y14261D01*
X16506Y14256D01*
X16522Y14248D01*
X16539Y14239D01*
X16558Y14227D01*
X16578Y14212D01*
X16599Y14194D01*
X16624Y14170D01*
X16641Y14164D01*
X16787Y14017D01*
Y13739D01*
X16780Y13722D01*
X16780Y13688D01*
X16779Y13673D01*
X16603D01*
X16593Y13683D01*
X16510Y13738D01*
X16413Y13758D01*
X16213D01*
X16195Y13765D01*
X16177Y13758D01*
X13258D01*
X13234Y13885D01*
X13417Y14068D01*
X13558Y14313D01*
X13629Y14578D01*
X12557D01*
X11484D01*
X11555Y14313D01*
X11696Y14068D01*
X11896Y13868D01*
X11897Y13867D01*
X11899Y13802D01*
X11885Y13728D01*
X11818Y13683D01*
X10935Y12800D01*
X10880Y12718D01*
X10861Y12620D01*
Y8549D01*
X10880Y8451D01*
X10935Y8369D01*
X11485Y7819D01*
X11489Y7805D01*
X11514Y7775D01*
X11532Y7746D01*
X11551Y7705D01*
X11568Y7653D01*
X11584Y7590D01*
X11596Y7520D01*
X11619Y7229D01*
X11619Y7115D01*
X11632Y7086D01*
Y6986D01*
X11695Y6751D01*
X11816Y6540D01*
X11989Y6368D01*
X12200Y6246D01*
X12435Y6183D01*
X12678D01*
X12914Y6246D01*
X13125Y6368D01*
X13297Y6540D01*
X13418Y6751D01*
X13482Y6986D01*
Y7230D01*
X13418Y7465D01*
X13297Y7676D01*
X13125Y7848D01*
X12914Y7970D01*
X12678Y8033D01*
X12579D01*
X12550Y8045D01*
X12434Y8046D01*
X12232Y8057D01*
X12149Y8067D01*
X12074Y8081D01*
X12011Y8096D01*
X11959Y8114D01*
X11919Y8132D01*
X11889Y8150D01*
X11860Y8175D01*
X11845Y8180D01*
X11371Y8654D01*
Y12515D01*
X12104Y13248D01*
X16174D01*
X16191Y13241D01*
X16224Y13240D01*
X16242Y13238D01*
Y12523D01*
X16183Y12421D01*
X15602D01*
X15585Y12428D01*
X15552Y12429D01*
X15534Y12430D01*
Y12716D01*
X14434D01*
Y11616D01*
X15534D01*
Y11901D01*
X15552Y11903D01*
X15585Y11903D01*
X15602Y11911D01*
X16538D01*
X16636Y11930D01*
X16719Y11985D01*
X17173Y12439D01*
X17228Y12522D01*
X17228Y12523D01*
X17467D01*
Y13098D01*
Y13673D01*
X17306D01*
X17305Y13689D01*
X17305Y13722D01*
X17297Y13739D01*
Y14123D01*
X17292Y14149D01*
X17379Y14272D01*
X17386Y14276D01*
X17764D01*
Y14751D01*
X17289D01*
Y14416D01*
X17162Y14364D01*
X17001Y14524D01*
X16995Y14541D01*
X16971Y14566D01*
X16953Y14587D01*
X16938Y14607D01*
X16926Y14626D01*
X16916Y14643D01*
X16909Y14659D01*
X16904Y14674D01*
X16901Y14687D01*
X16899Y14700D01*
X16898Y14720D01*
X16889Y14739D01*
Y15376D01*
X16363D01*
X16362Y15382D01*
X16361Y15413D01*
X16346Y15447D01*
X16334Y15507D01*
X16279Y15589D01*
X14820Y17048D01*
Y26113D01*
X18180Y29473D01*
X18235Y29556D01*
X18255Y29653D01*
Y31699D01*
X18262Y31712D01*
X18265Y31752D01*
X18274Y31786D01*
X18290Y31830D01*
X18316Y31881D01*
X18351Y31939D01*
X18394Y32000D01*
X18592Y32230D01*
X18675Y32314D01*
X18687Y32344D01*
X18760Y32417D01*
X18885Y32633D01*
X18950Y32875D01*
Y33125D01*
X18885Y33367D01*
X18760Y33583D01*
X18583Y33760D01*
X18367Y33885D01*
X18125Y33950D01*
D02*
G37*
G36*
X18551Y17539D02*
X18076D01*
Y17064D01*
X18551D01*
Y17539D01*
D02*
G37*
G36*
X17926D02*
X17451D01*
Y17064D01*
X17926D01*
Y17539D01*
D02*
G37*
G36*
X18551Y16914D02*
X18076D01*
Y16439D01*
X18551D01*
Y16914D01*
D02*
G37*
G36*
X17926D02*
X17451D01*
Y16439D01*
X17926D01*
Y16914D01*
D02*
G37*
G36*
X18389Y15376D02*
X17914D01*
Y14901D01*
X18389D01*
Y15376D01*
D02*
G37*
G36*
X17764D02*
X17289D01*
Y14901D01*
X17764D01*
Y15376D01*
D02*
G37*
G36*
X12707Y15801D02*
Y14878D01*
X13629D01*
X13558Y15143D01*
X13417Y15388D01*
X13217Y15588D01*
X12971Y15730D01*
X12707Y15801D01*
D02*
G37*
G36*
X12407D02*
X12142Y15730D01*
X11896Y15588D01*
X11696Y15388D01*
X11555Y15143D01*
X11484Y14878D01*
X12407D01*
Y15801D01*
D02*
G37*
G36*
X18389Y14751D02*
X17914D01*
Y14276D01*
X18389D01*
Y14751D01*
D02*
G37*
G36*
X20051Y15382D02*
X18951D01*
Y14282D01*
X19588D01*
X19607Y14273D01*
X19628Y14272D01*
X19640Y14270D01*
X19654Y14266D01*
X19668Y14261D01*
X19684Y14254D01*
X19702Y14244D01*
X19720Y14232D01*
X19740Y14217D01*
X19762Y14199D01*
X19787Y14176D01*
X19804Y14169D01*
X19897Y14076D01*
Y13882D01*
X18951D01*
Y13363D01*
X18933Y13361D01*
X18900Y13360D01*
X18884Y13353D01*
X18410D01*
X18394Y13360D01*
X18361Y13361D01*
X18342Y13363D01*
Y13673D01*
X17617D01*
Y13098D01*
Y12523D01*
X18342D01*
Y12833D01*
X18361Y12835D01*
X18394Y12836D01*
X18410Y12843D01*
X18883D01*
X18899Y12836D01*
X18951Y12834D01*
Y12782D01*
X19082D01*
X19104Y12772D01*
X19117Y12778D01*
X19131Y12775D01*
X19142Y12782D01*
X19897D01*
Y12456D01*
X19613Y12173D01*
X19596Y12167D01*
X19581Y12152D01*
X19570Y12144D01*
X19559Y12136D01*
X19547Y12130D01*
X19535Y12125D01*
X19522Y12120D01*
X19507Y12116D01*
X19491Y12114D01*
X19474Y12112D01*
X19449Y12112D01*
X19421Y12099D01*
X19360D01*
X19195Y12031D01*
X19069Y11904D01*
X19000Y11739D01*
Y11560D01*
X19069Y11394D01*
X19195Y11268D01*
X19360Y11199D01*
X19540D01*
X19705Y11268D01*
X19831Y11394D01*
X19900Y11560D01*
Y11621D01*
X19912Y11649D01*
X19913Y11673D01*
X19914Y11691D01*
X19917Y11706D01*
X19921Y11721D01*
X19925Y11734D01*
X19931Y11746D01*
X19937Y11758D01*
X19944Y11769D01*
X19953Y11780D01*
X19967Y11796D01*
X19973Y11812D01*
X20332Y12170D01*
X20387Y12253D01*
X20406Y12351D01*
Y14182D01*
X20387Y14279D01*
X20332Y14362D01*
X20164Y14530D01*
X20158Y14547D01*
X20134Y14572D01*
X20116Y14593D01*
X20101Y14613D01*
X20089Y14631D01*
X20079Y14649D01*
X20072Y14665D01*
X20067Y14679D01*
X20063Y14693D01*
X20062Y14705D01*
X20061Y14726D01*
X20051Y14745D01*
Y15382D01*
D02*
G37*
G36*
X6171Y12840D02*
X6150D01*
Y11690D01*
X7300D01*
Y11711D01*
X7211Y12042D01*
X7040Y12338D01*
X6798Y12580D01*
X6502Y12751D01*
X6171Y12840D01*
D02*
G37*
G36*
X5850D02*
X5829D01*
X5498Y12751D01*
X5202Y12580D01*
X4960Y12338D01*
X4789Y12042D01*
X4700Y11711D01*
Y11690D01*
X5850D01*
Y12840D01*
D02*
G37*
G36*
X19783Y27010D02*
X19773Y27005D01*
X18344D01*
Y25420D01*
X18260Y24847D01*
X18251D01*
Y24788D01*
X18238Y24702D01*
X18244Y24681D01*
X18238Y24661D01*
X18251Y24537D01*
Y22747D01*
X18273D01*
X18344Y21922D01*
Y20636D01*
X18381D01*
X18399Y20201D01*
Y18686D01*
X19555D01*
X19595Y18678D01*
X19810D01*
X19894Y18584D01*
X19866Y18445D01*
X19791Y18414D01*
X19664Y18288D01*
X19596Y18122D01*
Y17943D01*
X19609Y17911D01*
X19607Y17887D01*
X19612Y17869D01*
X19623Y17824D01*
X19626Y17805D01*
X19636Y17666D01*
X19576Y17576D01*
X19533Y17539D01*
X19051D01*
Y16439D01*
X20151D01*
Y17264D01*
X20156Y17289D01*
Y17373D01*
X20161Y17383D01*
X20163Y17548D01*
X20164Y17549D01*
X20165Y17571D01*
X20166Y17581D01*
X20167Y17586D01*
X20180Y17590D01*
X20203Y17611D01*
X20300Y17651D01*
X20427Y17778D01*
X20458Y17853D01*
X20471Y17858D01*
X20588Y17835D01*
Y10296D01*
X20433D01*
X20423Y10300D01*
X20330Y10302D01*
X20252Y10307D01*
X20186Y10315D01*
X20133Y10325D01*
X20095Y10336D01*
X20071Y10346D01*
X20071Y10347D01*
X20065Y10356D01*
Y10473D01*
X19934D01*
X19912Y10483D01*
X19900Y10478D01*
X19888Y10481D01*
X19876Y10473D01*
X19428D01*
X19409Y10482D01*
X19389Y10483D01*
X19376Y10485D01*
X19363Y10489D01*
X19348Y10494D01*
X19332Y10501D01*
X19315Y10511D01*
X19296Y10523D01*
X19288Y10529D01*
X19238Y10573D01*
X19175Y10634D01*
X19157Y10641D01*
X18945Y10853D01*
X18863Y10909D01*
X18765Y10928D01*
X17789D01*
X17691Y10909D01*
X17609Y10853D01*
X17412Y10657D01*
X17357Y10574D01*
X17357Y10573D01*
X17228D01*
X17228Y10574D01*
X17173Y10657D01*
X16976Y10853D01*
X16893Y10909D01*
X16796Y10928D01*
X15602D01*
X15585Y10935D01*
X15552Y10936D01*
X15534Y10938D01*
Y11216D01*
X14434D01*
Y10436D01*
X14317Y10388D01*
X13190Y11514D01*
X13297Y11620D01*
X13418Y11831D01*
X13482Y12066D01*
Y12310D01*
X13418Y12545D01*
X13297Y12756D01*
X13125Y12928D01*
X12914Y13050D01*
X12678Y13113D01*
X12435D01*
X12200Y13050D01*
X11989Y12928D01*
X11816Y12756D01*
X11695Y12545D01*
X11632Y12310D01*
Y12066D01*
X11695Y11831D01*
X11816Y11620D01*
X11989Y11448D01*
X12200Y11326D01*
X12435Y11263D01*
X12678D01*
X12718Y11274D01*
X12736Y11247D01*
X14165Y9818D01*
X14248Y9763D01*
X14346Y9743D01*
X16174D01*
X16191Y9736D01*
X16224Y9735D01*
X16242Y9733D01*
Y9423D01*
X16779D01*
X16780Y9407D01*
X16781Y9374D01*
X16788Y9357D01*
Y8949D01*
X15718D01*
Y7849D01*
X16003D01*
X16005Y7830D01*
X16006Y7798D01*
X16013Y7781D01*
Y7225D01*
X14699Y5911D01*
X7424D01*
X7354Y6045D01*
X7320Y6124D01*
X7165Y6602D01*
X7126Y6750D01*
X7121Y6756D01*
X7121Y6764D01*
X7104Y6783D01*
X7072Y6904D01*
X6920Y7166D01*
X6706Y7380D01*
X6444Y7532D01*
X6151Y7610D01*
X5849D01*
X5556Y7532D01*
X5294Y7380D01*
X5080Y7166D01*
X4928Y6904D01*
X4850Y6611D01*
Y6309D01*
X4928Y6016D01*
X5080Y5754D01*
X5294Y5540D01*
X5556Y5388D01*
X5849Y5310D01*
X6151D01*
X6444Y5388D01*
X6479Y5409D01*
X6493Y5408D01*
X6498Y5412D01*
X6504Y5413D01*
X6605Y5458D01*
X6694Y5492D01*
X6775Y5516D01*
X6847Y5531D01*
X6909Y5536D01*
X6963Y5535D01*
X7007Y5527D01*
X7044Y5513D01*
X7076Y5495D01*
X7115Y5461D01*
X7148Y5451D01*
X7193Y5421D01*
X7291Y5402D01*
X11632D01*
Y3643D01*
X13482D01*
Y4303D01*
X13500Y4305D01*
X13533Y4306D01*
X13549Y4313D01*
X16020D01*
X16117Y4332D01*
X16200Y4388D01*
X17223Y5411D01*
X17279Y5494D01*
X17298Y5591D01*
Y7849D01*
X18318D01*
Y8949D01*
X18158D01*
X18106Y9076D01*
X18173Y9143D01*
X18228Y9225D01*
X18247Y9323D01*
Y9355D01*
X18255Y9372D01*
X18255Y9405D01*
X18257Y9423D01*
X18342D01*
Y9554D01*
X18352Y9576D01*
X18348Y9585D01*
X18351Y9594D01*
X18342Y9609D01*
Y10418D01*
X18660D01*
X18797Y10281D01*
X18804Y10263D01*
X18867Y10199D01*
X18895Y10168D01*
X18901Y10162D01*
X18916Y10142D01*
X18928Y10124D01*
X18937Y10106D01*
X18944Y10090D01*
X18950Y10076D01*
X18953Y10062D01*
X18955Y10050D01*
X18956Y10029D01*
X18965Y10010D01*
Y9373D01*
X19866D01*
X19871Y9369D01*
X19892Y9372D01*
X19912Y9364D01*
X19934Y9373D01*
X20065D01*
Y9443D01*
X20072Y9445D01*
X20114Y9452D01*
X20330Y9467D01*
X20422Y9468D01*
X20432Y9472D01*
X20588D01*
Y5211D01*
X18398Y3021D01*
X7482D01*
X7479Y3024D01*
X7475Y3033D01*
X7350Y3169D01*
X7303Y3228D01*
X7261Y3286D01*
X7228Y3340D01*
X7202Y3391D01*
X7182Y3437D01*
X7169Y3479D01*
X7162Y3517D01*
X7159Y3562D01*
X7150Y3580D01*
Y5070D01*
X4850D01*
Y2770D01*
X6340D01*
X6358Y2761D01*
X6403Y2758D01*
X6441Y2751D01*
X6483Y2738D01*
X6529Y2718D01*
X6580Y2692D01*
X6634Y2658D01*
X6690Y2619D01*
X6817Y2511D01*
X6884Y2447D01*
X6895Y2443D01*
X7020Y2318D01*
X7153Y2228D01*
X7311Y2197D01*
X18569D01*
X18727Y2228D01*
X18860Y2318D01*
X21291Y4749D01*
X21381Y4882D01*
X21412Y5040D01*
Y9884D01*
Y18074D01*
X21381Y18231D01*
X21291Y18365D01*
X20275Y19381D01*
X20142Y19470D01*
X19999Y19499D01*
Y19573D01*
X20132Y21498D01*
X20514Y22961D01*
X20511Y22982D01*
X20519Y23001D01*
X20531Y24911D01*
X20522Y24934D01*
X20524Y24959D01*
X19944Y26874D01*
Y27005D01*
X19793D01*
X19783Y27010D01*
D02*
G37*
G36*
X12678Y10573D02*
X12435D01*
X12200Y10510D01*
X11989Y10388D01*
X11816Y10216D01*
X11695Y10005D01*
X11632Y9770D01*
Y9526D01*
X11695Y9291D01*
X11816Y9080D01*
X11989Y8908D01*
X12200Y8786D01*
X12435Y8723D01*
X12678D01*
X12914Y8786D01*
X13125Y8908D01*
X13297Y9080D01*
X13418Y9291D01*
X13482Y9526D01*
Y9770D01*
X13418Y10005D01*
X13297Y10216D01*
X13125Y10388D01*
X12914Y10510D01*
X12678Y10573D01*
D02*
G37*
G36*
X20065Y8973D02*
X19590D01*
Y8498D01*
X20065D01*
Y8973D01*
D02*
G37*
G36*
X19440D02*
X18965D01*
Y8498D01*
X19440D01*
Y8973D01*
D02*
G37*
G36*
X20065Y8348D02*
X19590D01*
Y7873D01*
X20065D01*
Y8348D01*
D02*
G37*
G36*
X19440D02*
X18965D01*
Y7873D01*
X19440D01*
Y8348D01*
D02*
G37*
G36*
X7300Y11390D02*
X6000D01*
X4700D01*
Y11369D01*
X4789Y11038D01*
X4960Y10742D01*
X5202Y10500D01*
X5498Y10329D01*
X5761Y10258D01*
Y10127D01*
X5556Y10072D01*
X5294Y9920D01*
X5080Y9706D01*
X4928Y9444D01*
X4850Y9151D01*
Y8849D01*
X4928Y8556D01*
X5080Y8294D01*
X5294Y8080D01*
X5556Y7928D01*
X5849Y7850D01*
X6151D01*
X6444Y7928D01*
X6706Y8080D01*
X6920Y8294D01*
X7072Y8556D01*
X7150Y8849D01*
Y9151D01*
X7072Y9444D01*
X6920Y9706D01*
X6706Y9920D01*
X6444Y10072D01*
X6239Y10127D01*
Y10258D01*
X6502Y10329D01*
X6798Y10500D01*
X7040Y10742D01*
X7211Y11038D01*
X7300Y11369D01*
Y11390D01*
D02*
G37*
%LPD*%
G36*
X15920Y32199D02*
X15877Y32172D01*
X15838Y32138D01*
X15805Y32097D01*
X15778Y32048D01*
X15755Y31992D01*
X15737Y31928D01*
X15724Y31857D01*
X15717Y31779D01*
X15714Y31693D01*
X15206D01*
X15203Y31779D01*
X15196Y31857D01*
X15183Y31928D01*
X15165Y31992D01*
X15142Y32048D01*
X15115Y32097D01*
X15082Y32138D01*
X15043Y32172D01*
X15000Y32199D01*
X14952Y32218D01*
X15968D01*
X15920Y32199D01*
D02*
G37*
G36*
X18473Y32340D02*
X18266Y32100D01*
X18215Y32028D01*
X18174Y31959D01*
X18141Y31895D01*
X18118Y31835D01*
X18105Y31779D01*
X18100Y31726D01*
X17900D01*
X17895Y31779D01*
X17882Y31835D01*
X17859Y31895D01*
X17826Y31959D01*
X17785Y32028D01*
X17734Y32100D01*
X17675Y32176D01*
X17527Y32340D01*
X17440Y32429D01*
X18560D01*
X18473Y32340D01*
D02*
G37*
G36*
X13289Y17550D02*
X13343Y17468D01*
X13397Y17395D01*
X13451Y17333D01*
X13507Y17280D01*
X13562Y17236D01*
X13618Y17202D01*
X13675Y17178D01*
X13731Y17164D01*
X13789Y17159D01*
X13732Y16959D01*
X13696Y16955D01*
X13650Y16945D01*
X13594Y16926D01*
X13530Y16901D01*
X13372Y16829D01*
X13065Y16665D01*
X12943Y16596D01*
X13236Y17641D01*
X13289Y17550D01*
D02*
G37*
G36*
X16200Y15374D02*
X16202Y15342D01*
X16207Y15314D01*
X16213Y15290D01*
X16220Y15270D01*
X16230Y15253D01*
X16241Y15240D01*
X16254Y15231D01*
X16269Y15225D01*
X16285Y15223D01*
X15942D01*
X15953Y15225D01*
X15962Y15231D01*
X15971Y15240D01*
X15978Y15253D01*
X15985Y15270D01*
X15990Y15290D01*
X15994Y15314D01*
X15997Y15342D01*
X15999Y15409D01*
X16199D01*
X16200Y15374D01*
D02*
G37*
G36*
X16737Y14684D02*
X16741Y14655D01*
X16748Y14627D01*
X16758Y14599D01*
X16771Y14571D01*
X16787Y14542D01*
X16805Y14514D01*
X16826Y14486D01*
X16850Y14457D01*
X16877Y14429D01*
X16736Y14288D01*
X16707Y14315D01*
X16679Y14339D01*
X16651Y14360D01*
X16623Y14378D01*
X16594Y14394D01*
X16566Y14407D01*
X16538Y14416D01*
X16509Y14424D01*
X16481Y14428D01*
X16453Y14429D01*
X16736Y14712D01*
X16737Y14684D01*
D02*
G37*
G36*
X17143Y13682D02*
X17150Y13592D01*
X17154Y13570D01*
X17159Y13552D01*
X17165Y13538D01*
X17172Y13528D01*
X17180Y13522D01*
X17189Y13520D01*
X16895D01*
X16904Y13522D01*
X16912Y13528D01*
X16919Y13538D01*
X16925Y13552D01*
X16931Y13570D01*
X16935Y13592D01*
X16938Y13618D01*
X16942Y13682D01*
X16942Y13720D01*
X17142D01*
X17143Y13682D01*
D02*
G37*
G36*
X16395Y13520D02*
Y13303D01*
X16393Y13322D01*
X16387Y13339D01*
X16377Y13354D01*
X16363Y13367D01*
X16345Y13378D01*
X16323Y13387D01*
X16297Y13394D01*
X16267Y13399D01*
X16233Y13402D01*
X16195Y13403D01*
Y13603D01*
X16395Y13520D01*
D02*
G37*
G36*
X15383Y12347D02*
X15389Y12330D01*
X15399Y12315D01*
X15413Y12302D01*
X15431Y12291D01*
X15453Y12282D01*
X15479Y12275D01*
X15509Y12270D01*
X15543Y12267D01*
X15581Y12266D01*
Y12066D01*
X15543Y12065D01*
X15509Y12062D01*
X15479Y12057D01*
X15453Y12050D01*
X15431Y12041D01*
X15413Y12030D01*
X15399Y12017D01*
X15389Y12002D01*
X15383Y11985D01*
X15381Y11966D01*
Y12366D01*
X15383Y12347D01*
D02*
G37*
G36*
X11794Y8018D02*
X11843Y7988D01*
X11900Y7963D01*
X11966Y7940D01*
X12041Y7922D01*
X12124Y7907D01*
X12217Y7895D01*
X12429Y7883D01*
X12549Y7883D01*
X11782Y7116D01*
X11781Y7235D01*
X11758Y7540D01*
X11743Y7624D01*
X11724Y7699D01*
X11702Y7765D01*
X11676Y7822D01*
X11647Y7870D01*
X11614Y7909D01*
X11755Y8051D01*
X11794Y8018D01*
D02*
G37*
G36*
X19900Y14689D02*
X19904Y14661D01*
X19911Y14633D01*
X19921Y14604D01*
X19934Y14576D01*
X19949Y14548D01*
X19968Y14520D01*
X19989Y14491D01*
X20013Y14463D01*
X20040Y14435D01*
X19898Y14293D01*
X19870Y14320D01*
X19842Y14344D01*
X19814Y14365D01*
X19785Y14384D01*
X19757Y14399D01*
X19729Y14412D01*
X19700Y14422D01*
X19672Y14429D01*
X19644Y14433D01*
X19616Y14435D01*
X19898Y14718D01*
X19900Y14689D01*
D02*
G37*
G36*
X19104Y12935D02*
X19102Y12947D01*
X19096Y12958D01*
X19086Y12967D01*
X19072Y12975D01*
X19054Y12982D01*
X19032Y12988D01*
X19006Y12992D01*
X18976Y12996D01*
X18904Y12998D01*
Y13198D01*
X18942Y13199D01*
X18976Y13202D01*
X19006Y13207D01*
X19032Y13214D01*
X19054Y13223D01*
X19072Y13234D01*
X19086Y13247D01*
X19096Y13262D01*
X19102Y13279D01*
X19104Y13298D01*
Y12935D01*
D02*
G37*
G36*
X18191Y13279D02*
X18197Y13262D01*
X18207Y13247D01*
X18221Y13234D01*
X18239Y13223D01*
X18261Y13214D01*
X18287Y13207D01*
X18317Y13202D01*
X18351Y13199D01*
X18389Y13198D01*
Y12998D01*
X18351Y12997D01*
X18317Y12994D01*
X18287Y12989D01*
X18261Y12982D01*
X18239Y12973D01*
X18221Y12962D01*
X18207Y12949D01*
X18197Y12934D01*
X18191Y12917D01*
X18189Y12898D01*
Y13298D01*
X18191Y13279D01*
D02*
G37*
G36*
X19848Y11906D02*
X19829Y11885D01*
X19812Y11864D01*
X19797Y11841D01*
X19785Y11817D01*
X19774Y11793D01*
X19765Y11767D01*
X19758Y11740D01*
X19753Y11712D01*
X19751Y11683D01*
X19750Y11652D01*
X19453Y11949D01*
X19483Y11950D01*
X19512Y11953D01*
X19541Y11957D01*
X19567Y11964D01*
X19593Y11973D01*
X19618Y11984D01*
X19642Y11997D01*
X19665Y12011D01*
X19686Y12028D01*
X19707Y12047D01*
X19848Y11906D01*
D02*
G37*
G36*
X20369Y24912D02*
X20357Y23002D01*
X19971Y21525D01*
X19835Y19550D01*
X18576Y19860D01*
X18533Y20905D01*
X19092Y21337D01*
X18526Y21699D01*
X18422Y22910D01*
X18500Y23751D01*
X18399Y24678D01*
X18500Y25365D01*
X18537Y25614D01*
X19782Y26847D01*
X20369Y24912D01*
D02*
G37*
G36*
X20127Y17744D02*
X20103Y17736D01*
X20082Y17725D01*
X20063Y17712D01*
X20047Y17697D01*
X20033Y17679D01*
X20021Y17659D01*
X20013Y17637D01*
X20006Y17612D01*
X20003Y17585D01*
X20001Y17556D01*
X20001Y17556D01*
X19998Y17386D01*
X19701D01*
X19720Y17388D01*
X19737Y17394D01*
X19752Y17404D01*
X19765Y17418D01*
X19776Y17436D01*
X19785Y17458D01*
X19792Y17484D01*
X19797Y17514D01*
X19800Y17548D01*
X19801Y17586D01*
X19824D01*
X19801Y17590D01*
X19801Y17634D01*
X19787Y17825D01*
X19782Y17856D01*
X19769Y17911D01*
X19762Y17935D01*
X20127Y17744D01*
D02*
G37*
G36*
X15383Y10854D02*
X15389Y10837D01*
X15399Y10822D01*
X15413Y10809D01*
X15431Y10798D01*
X15453Y10789D01*
X15479Y10782D01*
X15509Y10777D01*
X15543Y10774D01*
X15581Y10773D01*
Y10573D01*
X15543Y10572D01*
X15509Y10569D01*
X15479Y10564D01*
X15453Y10557D01*
X15431Y10548D01*
X15413Y10537D01*
X15399Y10524D01*
X15389Y10509D01*
X15383Y10492D01*
X15381Y10473D01*
Y10873D01*
X15383Y10854D01*
D02*
G37*
G36*
X19127Y10454D02*
X19185Y10403D01*
X19203Y10390D01*
X19231Y10371D01*
X19259Y10356D01*
X19288Y10343D01*
X19316Y10333D01*
X19344Y10326D01*
X19373Y10322D01*
X19401Y10320D01*
X19344Y10264D01*
X19345Y10263D01*
X19388Y10232D01*
X19427Y10208D01*
X19461Y10191D01*
X19490Y10181D01*
X19515Y10177D01*
X19261Y9923D01*
X19257Y9948D01*
X19247Y9977D01*
X19230Y10011D01*
X19206Y10050D01*
X19176Y10093D01*
X19175Y10094D01*
X19118Y10037D01*
X19117Y10066D01*
X19112Y10094D01*
X19105Y10122D01*
X19095Y10151D01*
X19083Y10179D01*
X19067Y10207D01*
X19049Y10235D01*
X19027Y10264D01*
X19017Y10276D01*
X18985Y10311D01*
X18920Y10377D01*
X19061Y10518D01*
X19127Y10454D01*
D02*
G37*
G36*
X16395Y9798D02*
X16393Y9817D01*
X16387Y9834D01*
X16377Y9849D01*
X16363Y9862D01*
X16345Y9873D01*
X16323Y9882D01*
X16297Y9889D01*
X16267Y9894D01*
X16233Y9897D01*
X16195Y9898D01*
Y10098D01*
X16233Y10099D01*
X16267Y10102D01*
X16297Y10107D01*
X16323Y10114D01*
X16345Y10123D01*
X16363Y10134D01*
X16377Y10147D01*
X16387Y10162D01*
X16393Y10179D01*
X16395Y10198D01*
Y9798D01*
D02*
G37*
G36*
X19917Y10286D02*
X19932Y10255D01*
X19958Y10227D01*
X19993Y10204D01*
X20039Y10183D01*
X20095Y10167D01*
X20161Y10154D01*
X20237Y10145D01*
X20323Y10140D01*
X20420Y10138D01*
Y9630D01*
X20323Y9629D01*
X20095Y9613D01*
X20039Y9604D01*
X19993Y9593D01*
X19958Y9579D01*
X19932Y9564D01*
X19917Y9546D01*
X19912Y9526D01*
Y10320D01*
X19917Y10286D01*
D02*
G37*
G36*
X18171Y9574D02*
X18154Y9568D01*
X18140Y9558D01*
X18127Y9544D01*
X18117Y9526D01*
X18108Y9504D01*
X18101Y9478D01*
X18096Y9448D01*
X18093Y9414D01*
X18092Y9376D01*
X17892D01*
X17895Y9576D01*
X18189D01*
X18171Y9574D01*
D02*
G37*
G36*
X17181D02*
X17173Y9568D01*
X17166Y9558D01*
X17160Y9544D01*
X17155Y9526D01*
X17150Y9504D01*
X17147Y9478D01*
X17144Y9414D01*
X17143Y9376D01*
X16943D01*
X16943Y9414D01*
X16935Y9504D01*
X16931Y9526D01*
X16926Y9544D01*
X16920Y9558D01*
X16913Y9568D01*
X16904Y9574D01*
X16895Y9576D01*
X17189D01*
X17181Y9574D01*
D02*
G37*
G36*
X17869Y8958D02*
X17872Y8924D01*
X17877Y8894D01*
X17884Y8868D01*
X17893Y8846D01*
X17904Y8828D01*
X17917Y8814D01*
X17932Y8804D01*
X17949Y8798D01*
X17968Y8796D01*
X17568D01*
X17587Y8798D01*
X17604Y8804D01*
X17619Y8814D01*
X17632Y8828D01*
X17643Y8846D01*
X17652Y8868D01*
X17659Y8894D01*
X17664Y8924D01*
X17667Y8958D01*
X17668Y8996D01*
X17868D01*
X17869Y8958D01*
D02*
G37*
G36*
X16449Y8000D02*
X16432Y7994D01*
X16417Y7984D01*
X16404Y7970D01*
X16393Y7952D01*
X16384Y7930D01*
X16377Y7904D01*
X16372Y7874D01*
X16369Y7840D01*
X16368Y7802D01*
X16168D01*
X16167Y7840D01*
X16164Y7874D01*
X16159Y7904D01*
X16152Y7930D01*
X16143Y7952D01*
X16132Y7970D01*
X16119Y7984D01*
X16104Y7994D01*
X16087Y8000D01*
X16068Y8002D01*
X16468D01*
X16449Y8000D01*
D02*
G37*
G36*
X7009Y6556D02*
X7168Y6067D01*
X7207Y5975D01*
X7285Y5827D01*
X7323Y5771D01*
X7361Y5727D01*
X7220Y5586D01*
X7169Y5629D01*
X7112Y5661D01*
X7049Y5684D01*
X6980Y5696D01*
X6905Y5699D01*
X6823Y5691D01*
X6736Y5674D01*
X6642Y5646D01*
X6543Y5608D01*
X6437Y5561D01*
X6969Y6708D01*
X7009Y6556D01*
D02*
G37*
G36*
X16788Y5697D02*
X15914Y4823D01*
X13549D01*
X13533Y4830D01*
X13500Y4831D01*
X13482Y4833D01*
Y5402D01*
X14805D01*
X14903Y5421D01*
X14985Y5476D01*
X16448Y6939D01*
X16504Y7022D01*
X16523Y7120D01*
Y7781D01*
X16531Y7798D01*
X16531Y7830D01*
X16533Y7849D01*
X16788D01*
Y5697D01*
D02*
G37*
G36*
X13330Y4749D02*
X13336Y4732D01*
X13346Y4717D01*
X13360Y4704D01*
X13378Y4693D01*
X13400Y4684D01*
X13426Y4677D01*
X13456Y4672D01*
X13490Y4669D01*
X13528Y4668D01*
Y4468D01*
X13490Y4467D01*
X13456Y4464D01*
X13426Y4459D01*
X13400Y4452D01*
X13378Y4443D01*
X13360Y4432D01*
X13346Y4419D01*
X13336Y4404D01*
X13330Y4387D01*
X13328Y4368D01*
Y4768D01*
X13330Y4749D01*
D02*
G37*
G36*
X7001Y3497D02*
X7011Y3440D01*
X7029Y3382D01*
X7054Y3322D01*
X7087Y3260D01*
X7126Y3196D01*
X7173Y3130D01*
X7227Y3063D01*
X7356Y2923D01*
X6997Y2564D01*
X6926Y2632D01*
X6790Y2747D01*
X6724Y2794D01*
X6660Y2833D01*
X6598Y2866D01*
X6538Y2891D01*
X6480Y2909D01*
X6423Y2919D01*
X6369Y2923D01*
X6997Y3551D01*
X7001Y3497D01*
D02*
G37*
D13*
X14805Y5656D02*
X16268Y7120D01*
X7291Y5656D02*
X14805D01*
X6487Y6460D02*
X7291Y5656D01*
X14565Y16989D02*
Y26219D01*
X18000Y29653D02*
Y33000D01*
X14565Y26219D02*
X18000Y29653D01*
X12765Y17059D02*
X14565D01*
X12557Y17268D02*
X12765Y17059D01*
X14519Y16989D02*
X16099Y15409D01*
Y15066D02*
Y15409D01*
Y15066D02*
X16339Y14826D01*
X19901Y17780D02*
X20046Y17924D01*
Y18033D01*
X20151Y12351D02*
Y14182D01*
X19501Y14832D02*
X20151Y14182D01*
X19901Y17289D02*
Y17780D01*
X19601Y16989D02*
X19901Y17289D01*
X19450Y11649D02*
X20151Y12351D01*
X17043Y5591D02*
Y9997D01*
X16020Y4568D02*
X17043Y5591D01*
X16268Y7120D02*
Y8399D01*
X11116Y8549D02*
Y12620D01*
X11998Y13503D01*
X11116Y8549D02*
X12557Y7108D01*
X11998Y13503D02*
X16413D01*
X16542Y13373D01*
Y13098D02*
Y13373D01*
X6000Y6460D02*
X6487D01*
X18765Y10673D02*
X19515Y9923D01*
X17789Y10673D02*
X18765D01*
X17592Y10477D02*
X17789Y10673D01*
X17592Y10048D02*
Y10477D01*
X17542Y9998D02*
X17592Y10048D01*
X17992Y9948D02*
X18042Y9998D01*
X17992Y9323D02*
Y9948D01*
X17768Y9099D02*
X17992Y9323D01*
X17768Y8399D02*
Y9099D01*
X16992Y10006D02*
Y10477D01*
Y10006D02*
X17000Y9998D01*
X14991Y10673D02*
X16796D01*
X16992Y10477D01*
X12916Y11427D02*
X14346Y9998D01*
X12815Y11564D02*
X12916Y11463D01*
Y11427D02*
Y11463D01*
X14346Y9998D02*
X16542D01*
X12815Y11564D02*
Y11930D01*
X12557Y12188D02*
X12815Y11930D01*
X12557Y4568D02*
X16020D01*
X16375Y14790D02*
X17042Y14123D01*
Y13098D02*
Y14123D01*
X16992Y13048D02*
X17042Y13098D01*
X16992Y12620D02*
Y13048D01*
X16538Y12166D02*
X16992Y12620D01*
X14984Y12166D02*
X16538D01*
X19268Y13098D02*
X19501Y13332D01*
X18042Y13098D02*
X19268D01*
D17*
X19325Y-8D02*
G03*
X21825Y2492I0J2500D01*
G01*
Y35003D02*
G03*
X19325Y37503I-2500J0D01*
G01*
X0Y2503D02*
G03*
X2500Y3I2500J0D01*
G01*
Y37514D02*
G03*
X0Y35014I0J-2500D01*
G01*
X19000Y0D02*
X19325Y-8D01*
X18500Y3D02*
X19000Y0D01*
X18500Y37514D02*
X19325Y37503D01*
X2500Y37514D02*
X18500D01*
X21825Y2492D02*
Y35003D01*
X2500Y3D02*
X18500D01*
X0Y2503D02*
Y35014D01*
D18*
X18001Y16989D02*
D03*
X19515Y8423D02*
D03*
X19501Y13332D02*
D03*
Y14832D02*
D03*
X14984Y12166D02*
D03*
Y10666D02*
D03*
X19515Y9923D02*
D03*
X19601Y16989D02*
D03*
D19*
X17839Y14826D02*
D03*
X16339D02*
D03*
X17768Y8399D02*
D03*
X16268D02*
D03*
D20*
X17542Y13098D02*
D03*
X18042Y9998D02*
D03*
X17542D02*
D03*
X17042D02*
D03*
X16542D02*
D03*
Y13098D02*
D03*
X17042D02*
D03*
X18042D02*
D03*
D21*
X17244Y26105D02*
D03*
Y21536D02*
D03*
X17299Y19586D02*
D03*
X19144Y26105D02*
D03*
Y21536D02*
D03*
X19199Y19586D02*
D03*
D22*
X16401Y23797D02*
D03*
X19201D02*
D03*
D30*
X6000Y22000D02*
D03*
Y11540D02*
D03*
Y9000D02*
D03*
Y6460D02*
D03*
D35*
Y19460D02*
D03*
Y3920D02*
D03*
D37*
X15460Y29337D02*
Y33000D01*
X13114Y26990D02*
X15460Y29337D01*
X13114Y22449D02*
Y26990D01*
X19515Y9923D02*
X19554Y9884D01*
X21000D01*
Y18074D01*
X19144Y19541D02*
Y21536D01*
X19984Y19090D02*
X21000Y18074D01*
X19144Y19541D02*
X19595Y19090D01*
X19984D01*
X21000Y5040D02*
Y9884D01*
X6000Y3920D02*
X7311Y2609D01*
X18569D01*
X21000Y5040D01*
D38*
X5888Y31426D02*
D03*
D39*
X12557Y14728D02*
D03*
Y17268D02*
D03*
Y12188D02*
D03*
Y7108D02*
D03*
Y9648D02*
D03*
D40*
Y4568D02*
D03*
D41*
X18000Y33000D02*
D03*
D42*
X15460D02*
D03*
D43*
X19826Y34828D02*
D03*
Y29748D02*
D03*
X18556Y11968D02*
D03*
Y6888D02*
D03*
Y1808D02*
D03*
X17286Y34828D02*
D03*
Y29748D02*
D03*
Y4348D02*
D03*
X16016Y1808D02*
D03*
X14746Y34828D02*
D03*
X13476Y32288D02*
D03*
X14746Y14508D02*
D03*
Y9428D02*
D03*
X13476Y1808D02*
D03*
X12206Y34828D02*
D03*
Y29748D02*
D03*
X10936Y27208D02*
D03*
X12206Y19588D02*
D03*
X10936Y17048D02*
D03*
Y6888D02*
D03*
Y1808D02*
D03*
X9666Y24668D02*
D03*
X8396Y22128D02*
D03*
Y17048D02*
D03*
X9666Y14508D02*
D03*
X8396Y11968D02*
D03*
X9666Y9428D02*
D03*
X8396Y6888D02*
D03*
X9666Y4348D02*
D03*
X8396Y1808D02*
D03*
X7126Y24668D02*
D03*
X5856Y17048D02*
D03*
X7126Y14508D02*
D03*
X5856Y1808D02*
D03*
X4586Y24668D02*
D03*
X3316Y22128D02*
D03*
Y17048D02*
D03*
X4586Y14508D02*
D03*
X3316Y11968D02*
D03*
X4586Y9428D02*
D03*
X3316Y6888D02*
D03*
Y1808D02*
D03*
X776Y27208D02*
D03*
X2046Y24668D02*
D03*
X776Y22128D02*
D03*
X2046Y19588D02*
D03*
X776Y17048D02*
D03*
X2046Y14508D02*
D03*
X776Y11968D02*
D03*
X2046Y9428D02*
D03*
X776Y6888D02*
D03*
X2046Y4348D02*
D03*
X776Y1808D02*
D03*
X17441Y24171D02*
D03*
Y23171D02*
D03*
X17331Y26011D02*
D03*
X17267Y21356D02*
D03*
X16946Y20625D02*
D03*
X16525Y26006D02*
D03*
X16941Y23671D02*
D03*
X16441Y23171D02*
D03*
Y24171D02*
D03*
X16623Y21351D02*
D03*
X15784Y5596D02*
D03*
X13114Y22449D02*
D03*
X20046Y18033D02*
D03*
X19450Y11649D02*
D03*
X19954Y24749D02*
D03*
X20049Y23965D02*
D03*
X19396Y24257D02*
D03*
X19789Y23260D02*
D03*
X19113Y23528D02*
D03*
M02*
