M48
;Layer_Color=9474304
;FILE_FORMAT=4:3
METRIC,LZ
;TYPE=NON_PLATED
T03F00S00C0.600
T04F00S00C2.500
%
T03
X0008684Y0
X0009684
X0010684
X0011684
X0012684
X0013684
X00254Y0023892
Y0024892
Y0025892
Y0026892
Y0027892
Y0028892
X0
Y0027892
Y0026892
Y0025892
Y0024892
Y0023892
X0010335Y0042926
X0011335
X0012335
X0013335
X0014335
X0015335
T04
X0030176Y-0004813
X-0004758Y-0004762
X-0004826Y0040386
X0030226Y0047752
M30
