M48
;Layer_Color=9474304
;FILE_FORMAT=4:3
METRIC,LZ
;TYPE=PLATED
T01F00S00C0.300
T02F00S00C1.000
%
T01
X0002311Y0002057
X0005309
X0008306
X0011303
X00143
X0017297
X0020295
X0023292
X0021793Y0005055
X0018796
X0015799
X0012802
X0009804
X0006807
X0004637Y0005023
X0003871Y0007584
X0005452Y0008623
X0007461Y0010177
X0010965Y0010346
X0011383Y0009645
X0012192Y0008509
X0013519Y0009059
X0013569Y0010792
X0012882Y0011982
X001178Y0011416
X001005Y0008918
X0010233Y0007874
X0017297Y0008052
X0020295
X0021362Y0010043
X002094Y0013175
X002221Y0014953
X0018076Y0014605
X0015701Y0015258
X0015516Y0017926
X001558Y001942
X0017885Y001997
X0018556Y0020572
X0022606Y0019812
X002197Y0022501
X002479Y0023038
X0023292Y0026035
X0020295
X0021793Y0029032
X002413Y002921
X0018796Y0029032
X001595Y0028326
X0011344Y0028542
X0009946Y0028177
X0008505Y0028063
X0008743Y0026164
X0007543Y0025425
X0007748Y0024383
X0006972Y0023604
X0006527Y0021109
X0007404Y0020529
X0009041Y002019
X0009625Y001846
X0008801Y0016473
X0006858Y0014478
X0004152Y0012166
X000381Y0023038
X0002311Y0026035
X000381Y0029032
X000667Y0027706
X0018385Y0011322
X002479Y0005055
X0023292Y0032029
X002479Y0035027
X0021793
X0023292Y0038024
X0020295
X0017363Y0038139
X0018796Y0041021
X0015799
X0012802
X0009804
X0006807
X0005309Y0038024
X0002311
X000381Y0035027
X0002311Y0032029
X002479Y0041021
T02
X000127Y000381
Y000635
Y000889
Y001143
Y001397
Y001651
Y001905
Y002159
X002413
Y001905
Y001651
Y001397
Y001143
Y000889
Y000635
Y000381
M30
